<svg xmlns="http://www.w3.org/2000/svg" xmlns:xlink="http://www.w3.org/1999/xlink" width="250" zoomAndPan="magnify" viewBox="0 0 187.5 74.999997" height="100" preserveAspectRatio="xMidYMid meet" version="1.2"><defs><clipPath id="a4f57f49a9"><path d="M 0 0.101562 L 187 0.101562 L 187 74.898438 L 0 74.898438 Z M 0 0.101562 "/></clipPath><clipPath id="e1b04c3010"><path d="M 0 0.101562 L 187 0.101562 L 187 74.898438 L 0 74.898438 Z M 0 0.101562 "/></clipPath><clipPath id="221bf945dc"><path d="M 7.480469 0.101562 L 179.519531 0.101562 C 181.503906 0.101562 183.40625 0.886719 184.808594 2.289062 C 186.214844 3.695312 187 5.597656 187 7.578125 L 187 67.421875 C 187 69.402344 186.214844 71.304688 184.808594 72.710938 C 183.40625 74.113281 181.503906 74.898438 179.519531 74.898438 L 7.480469 74.898438 C 5.496094 74.898438 3.59375 74.113281 2.191406 72.710938 C 0.789062 71.304688 0 69.402344 0 67.421875 L 0 7.578125 C 0 5.597656 0.789062 3.695312 2.191406 2.289062 C 3.59375 0.886719 5.496094 0.101562 7.480469 0.101562 Z M 7.480469 0.101562 "/></clipPath><clipPath id="cfac7b54d1"><path d="M 24.710938 0.101562 L 47.152344 0.101562 L 47.152344 7.578125 L 24.710938 7.578125 Z M 24.710938 0.101562 "/></clipPath><clipPath id="1f56d9b2d1"><path d="M 35.933594 -14.859375 C 29.734375 -14.859375 24.710938 -9.835938 24.710938 -3.640625 C 24.710938 2.554688 29.734375 7.578125 35.933594 7.578125 C 42.128906 7.578125 47.152344 2.554688 47.152344 -3.640625 C 47.152344 -9.835938 42.128906 -14.859375 35.933594 -14.859375 Z M 35.933594 -14.859375 "/></clipPath><clipPath id="155b220ef8"><path d="M 24.710938 67.421875 L 47.152344 67.421875 L 47.152344 74.898438 L 24.710938 74.898438 Z M 24.710938 67.421875 "/></clipPath><clipPath id="388d054efd"><path d="M 35.933594 67.421875 C 29.734375 67.421875 24.710938 72.445312 24.710938 78.640625 C 24.710938 84.835938 29.734375 89.859375 35.933594 89.859375 C 42.128906 89.859375 47.152344 84.835938 47.152344 78.640625 C 47.152344 72.445312 42.128906 67.421875 35.933594 67.421875 Z M 35.933594 67.421875 "/></clipPath><clipPath id="16d05d409d"><path d="M 0 26.28125 L 11.21875 26.28125 L 11.21875 48.71875 L 0 48.71875 Z M 0 26.28125 "/></clipPath><clipPath id="f3f625c7fe"><path d="M 0 26.28125 C -6.195312 26.28125 -11.21875 31.304688 -11.21875 37.5 C -11.21875 43.695312 -6.195312 48.71875 0 48.71875 C 6.195312 48.71875 11.21875 43.695312 11.21875 37.5 C 11.21875 31.304688 6.195312 26.28125 0 26.28125 Z M 0 26.28125 "/></clipPath><clipPath id="26b7c11451"><path d="M 175.78125 26.28125 L 187 26.28125 L 187 48.71875 L 175.78125 48.71875 Z M 175.78125 26.28125 "/></clipPath><clipPath id="08fad49df9"><path d="M 187 26.28125 C 180.804688 26.28125 175.78125 31.304688 175.78125 37.5 C 175.78125 43.695312 180.804688 48.71875 187 48.71875 C 193.199219 48.71875 198.222656 43.695312 198.222656 37.5 C 198.222656 31.304688 193.199219 26.28125 187 26.28125 Z M 187 26.28125 "/></clipPath><clipPath id="5cbf921b6a"><path d="M 18.269531 13.558594 L 25 13.558594 L 25 61.429688 L 18.269531 61.429688 Z M 18.269531 13.558594 "/></clipPath><clipPath id="0f3bc864b8"><path d="M 0.746094 33.265625 L 8.226562 33.265625 L 8.226562 40.746094 L 0.746094 40.746094 Z M 0.746094 33.265625 "/></clipPath><clipPath id="6f1c24deb8"><path d="M 179.503906 31.578125 L 186.234375 31.578125 L 186.234375 42.800781 L 179.503906 42.800781 Z M 179.503906 31.578125 "/></clipPath><clipPath id="f4842a0201"><path d="M 179.503906 32 L 186 32 L 186 42 L 179.503906 42 Z M 179.503906 32 "/></clipPath></defs><g id="ed60476f0b"><g clip-rule="nonzero" clip-path="url(#a4f57f49a9)"><path style=" stroke:none;fill-rule:nonzero;fill:#ffffff;fill-opacity:1;" d="M 0 0.101562 L 187 0.101562 L 187 74.898438 L 0 74.898438 Z M 0 0.101562 "/><path style=" stroke:none;fill-rule:nonzero;fill:#ffffff;fill-opacity:1;" d="M 0 0.101562 L 187 0.101562 L 187 74.898438 L 0 74.898438 Z M 0 0.101562 "/></g><g clip-rule="nonzero" clip-path="url(#e1b04c3010)"><g clip-rule="nonzero" clip-path="url(#221bf945dc)"><path style=" stroke:none;fill-rule:nonzero;fill:#ec1d25;fill-opacity:1;" d="M 0 0.101562 L 187 0.101562 L 187 74.898438 L 0 74.898438 Z M 0 0.101562 "/></g></g><g clip-rule="nonzero" clip-path="url(#cfac7b54d1)"><g clip-rule="nonzero" clip-path="url(#1f56d9b2d1)"><path style="fill:none;stroke-width:4;stroke-linecap:butt;stroke-linejoin:miter;stroke:#ffffff;stroke-opacity:1;stroke-miterlimit:4;" d="M 15.001484 0.00133584 C 6.713818 0.00133584 -0.00196005 6.717113 -0.00196005 14.999558 C -0.00196005 23.282002 6.713818 29.99778 15.001484 29.99778 C 23.283928 29.99778 29.999706 23.282002 29.999706 14.999558 C 29.999706 6.717113 23.283928 0.00133584 15.001484 0.00133584 Z M 15.001484 0.00133584 " transform="matrix(0.748005,0,0,0.748005,24.712404,-14.860374)"/></g></g><g clip-rule="nonzero" clip-path="url(#155b220ef8)"><g clip-rule="nonzero" clip-path="url(#388d054efd)"><path style="fill:none;stroke-width:4;stroke-linecap:butt;stroke-linejoin:miter;stroke:#ffffff;stroke-opacity:1;stroke-miterlimit:4;" d="M 15.001484 0.00222931 C 6.713818 0.00222931 -0.00196005 6.718007 -0.00196005 15.000451 C -0.00196005 23.282895 6.713818 29.998673 15.001484 29.998673 C 23.283928 29.998673 29.999706 23.282895 29.999706 15.000451 C 29.999706 6.718007 23.283928 0.00222931 15.001484 0.00222931 Z M 15.001484 0.00222931 " transform="matrix(0.748005,0,0,0.748005,24.712404,67.420207)"/></g></g><g clip-rule="nonzero" clip-path="url(#16d05d409d)"><g clip-rule="nonzero" clip-path="url(#f3f625c7fe)"><path style="fill:none;stroke-width:4;stroke-linecap:butt;stroke-linejoin:miter;stroke:#ffffff;stroke-opacity:1;stroke-miterlimit:4;" d="M 14.999999 0.00178257 C 6.717555 0.00178257 0.00177715 6.71756 0.00177715 15.000004 C 0.00177715 23.282449 6.717555 29.998226 14.999999 29.998226 C 23.282443 29.998226 29.998221 23.282449 29.998221 15.000004 C 29.998221 6.71756 23.282443 0.00178257 14.999999 0.00178257 Z M 14.999999 0.00178257 " transform="matrix(0.748005,0,0,0.748005,-11.220079,26.279917)"/></g></g><g clip-rule="nonzero" clip-path="url(#26b7c11451)"><g clip-rule="nonzero" clip-path="url(#08fad49df9)"><path style="fill:none;stroke-width:4;stroke-linecap:butt;stroke-linejoin:miter;stroke:#ffffff;stroke-opacity:1;stroke-miterlimit:4;" d="M 14.998232 0.00178257 C 6.715787 0.00178257 0.00000979167 6.71756 0.00000979167 15.000004 C 0.00000979167 23.282449 6.715787 29.998226 14.998232 29.998226 C 23.285898 29.998226 30.001676 23.282449 30.001676 15.000004 C 30.001676 6.71756 23.285898 0.00178257 14.998232 0.00178257 Z M 14.998232 0.00178257 " transform="matrix(0.748005,0,0,0.748005,175.781243,26.279917)"/></g></g><path style=" stroke:none;fill-rule:nonzero;fill:#ffffff;fill-opacity:1;" d="M 35.183594 67.421875 L 35.183594 62.933594 L 36.679688 62.933594 L 36.679688 67.421875 M 35.183594 61.4375 L 35.183594 56.949219 L 36.679688 56.949219 L 36.679688 61.4375 M 35.183594 55.453125 L 35.183594 50.964844 L 36.679688 50.964844 L 36.679688 55.453125 M 35.183594 49.46875 L 35.183594 44.980469 L 36.679688 44.980469 L 36.679688 49.46875 M 35.183594 43.484375 L 35.183594 38.996094 L 36.679688 38.996094 L 36.679688 43.484375 M 35.183594 37.5 L 35.183594 33.011719 L 36.679688 33.011719 L 36.679688 37.5 M 35.183594 31.515625 L 35.183594 27.027344 L 36.679688 27.027344 L 36.679688 31.515625 M 35.183594 25.53125 L 35.183594 21.042969 L 36.679688 21.042969 L 36.679688 25.53125 M 35.183594 19.546875 L 35.183594 15.058594 L 36.679688 15.058594 L 36.679688 19.546875 M 35.183594 13.5625 L 35.183594 9.074219 L 36.679688 9.074219 L 36.679688 13.5625 "/><g style="fill:#ffffff;fill-opacity:1;"><g transform="translate(107.111154, 64.893612)"><path style="stroke:none" d="M 5.847656 0 L 5.847656 -5.320312 L 0.535156 -5.320312 L 0.535156 0 L 1.597656 0 L 1.597656 -2.128906 L 4.789062 -2.128906 L 4.789062 0 Z M 4.789062 -3.191406 L 1.597656 -3.191406 L 1.597656 -4.253906 L 4.789062 -4.253906 Z M 4.789062 -3.191406 "/></g></g><g style="fill:#ffffff;fill-opacity:1;"><g transform="translate(114.4596, 64.893612)"><path style="stroke:none" d="M 5.847656 0 L 5.847656 -5.320312 L 4.789062 -5.320312 L 4.789062 -1.0625 L 1.597656 -1.0625 L 1.597656 -5.320312 L 0.535156 -5.320312 L 0.535156 0 Z M 5.847656 0 "/></g></g><g style="fill:#ffffff;fill-opacity:1;"><g transform="translate(121.808046, 64.893612)"><path style="stroke:none" d="M 5.847656 0 L 5.847656 -3.191406 L 1.597656 -3.191406 L 1.597656 -4.253906 L 5.847656 -4.253906 L 5.847656 -5.320312 L 0.535156 -5.320312 L 0.535156 -2.128906 L 4.789062 -2.128906 L 4.789062 -1.0625 L 0.535156 -1.0625 L 0.535156 0 Z M 5.847656 0 "/></g></g><g style="fill:#ffffff;fill-opacity:1;"><g transform="translate(129.156492, 64.893612)"><path style="stroke:none" d="M 5.847656 -4.253906 L 5.847656 -5.320312 L 0.535156 -5.320312 L 0.535156 -4.253906 L 2.65625 -4.253906 L 2.65625 0 L 3.726562 0 L 3.726562 -4.253906 Z M 5.847656 -4.253906 "/></g></g><g style="fill:#ffffff;fill-opacity:1;"><g transform="translate(136.504938, 64.893612)"><path style="stroke:none" d="M 5.847656 -2.128906 L 5.847656 -5.320312 L 0.535156 -5.320312 L 0.535156 0 L 1.597656 0 L 1.597656 -2.128906 L 3.726562 -2.128906 L 3.726562 0 L 4.789062 0 L 4.789062 -2.128906 Z M 4.789062 -3.191406 L 1.597656 -3.191406 L 1.597656 -4.253906 L 4.789062 -4.253906 Z M 4.789062 -3.191406 "/></g></g><g style="fill:#ffffff;fill-opacity:1;"><g transform="translate(143.853384, 64.893612)"><path style="stroke:none" d="M 5.847656 0 L 5.847656 -5.320312 L 0.535156 -5.320312 L 0.535156 0 L 1.597656 0 L 1.597656 -2.128906 L 4.789062 -2.128906 L 4.789062 0 Z M 4.789062 -3.191406 L 1.597656 -3.191406 L 1.597656 -4.253906 L 4.789062 -4.253906 Z M 4.789062 -3.191406 "/></g></g><g style="fill:#ffffff;fill-opacity:1;"><g transform="translate(151.201831, 64.893612)"><path style="stroke:none" d="M 5.847656 0 L 5.847656 -1.0625 L 1.597656 -1.0625 L 1.597656 -5.320312 L 0.535156 -5.320312 L 0.535156 0 Z M 5.847656 0 "/></g></g><g style="fill:#ffffff;fill-opacity:1;"><g transform="translate(158.550277, 64.893612)"><path style="stroke:none" d="M 1.597656 0 L 1.597656 -5.320312 L 0.535156 -5.320312 L 0.535156 0 Z M 1.597656 0 "/></g></g><g style="fill:#ffffff;fill-opacity:1;"><g transform="translate(161.646036, 64.893612)"><path style="stroke:none" d="M 5.847656 0 L 5.847656 -5.320312 L 0.535156 -5.320312 L 0.535156 0 L 1.597656 0 L 1.597656 -2.128906 L 4.789062 -2.128906 L 4.789062 0 Z M 4.789062 -3.191406 L 1.597656 -3.191406 L 1.597656 -4.253906 L 4.789062 -4.253906 Z M 4.789062 -3.191406 "/></g></g><g clip-rule="nonzero" clip-path="url(#5cbf921b6a)"><path style=" stroke:none;fill-rule:nonzero;fill:#ffffff;fill-opacity:1;" d="M 18.304688 41.960938 C 20.425781 41.960938 22.546875 41.960938 24.671875 41.960938 L 24.671875 43.5 C 22.546875 43.5 20.425781 43.5 18.304688 43.5 Z M 18.304688 25.074219 C 20.425781 25.074219 22.546875 25.074219 24.671875 25.074219 L 24.671875 23.539062 C 22.546875 23.539062 20.425781 23.539062 18.304688 23.539062 Z M 18.304688 22.386719 C 20.425781 22.386719 22.546875 22.386719 24.671875 22.386719 L 24.671875 20.851562 C 22.546875 20.851562 20.425781 20.851562 18.304688 20.851562 Z M 18.304688 32.367188 C 20.425781 32.367188 22.546875 32.367188 24.671875 32.367188 L 24.671875 31.214844 C 22.546875 31.214844 20.425781 31.214844 18.304688 31.214844 Z M 18.304688 17.394531 C 20.425781 17.394531 22.546875 17.394531 24.671875 17.394531 L 24.671875 16.242188 C 22.546875 16.242188 20.425781 16.242188 18.304688 16.242188 Z M 18.304688 57.699219 C 20.425781 57.699219 22.546875 57.699219 24.671875 57.699219 L 24.671875 56.550781 C 22.546875 56.550781 20.425781 56.550781 18.304688 56.550781 Z M 18.304688 20.464844 C 20.425781 20.464844 22.546875 20.464844 24.671875 20.464844 L 24.671875 19.316406 C 22.546875 19.316406 20.425781 19.316406 18.304688 19.316406 Z M 18.304688 28.144531 C 20.421875 28.144531 22.542969 28.144531 24.671875 28.144531 L 24.671875 27.375 C 22.542969 27.375 20.421875 27.375 18.304688 27.375 Z M 18.304688 15.476562 C 20.421875 15.476562 22.546875 15.476562 24.671875 15.476562 L 24.671875 14.707031 C 22.546875 14.707031 20.421875 14.707031 18.304688 14.707031 Z M 18.304688 59.234375 C 20.421875 59.234375 22.546875 59.234375 24.671875 59.234375 L 24.671875 58.46875 C 22.546875 58.46875 20.421875 58.46875 18.304688 58.46875 Z M 18.304688 37.355469 C 20.421875 37.355469 22.542969 37.355469 24.671875 37.355469 L 24.671875 36.589844 C 22.542969 36.589844 20.421875 36.589844 18.304688 36.589844 Z M 18.304688 53.476562 C 20.421875 53.476562 22.542969 53.476562 24.671875 53.476562 L 24.671875 52.710938 C 22.542969 52.710938 20.421875 52.710938 18.304688 52.710938 Z M 18.304688 33.902344 C 20.421875 33.902344 22.546875 33.902344 24.671875 33.902344 L 24.671875 33.132812 C 22.546875 33.132812 20.421875 33.132812 18.304688 33.132812 Z M 18.304688 50.023438 C 20.421875 50.023438 22.542969 50.023438 24.671875 50.023438 L 24.671875 49.257812 C 22.542969 49.257812 20.421875 49.257812 18.304688 49.257812 Z M 18.304688 47.71875 C 20.421875 47.71875 22.542969 47.71875 24.671875 47.71875 L 24.671875 46.953125 C 22.542969 46.953125 20.421875 46.953125 18.304688 46.953125 Z M 18.304688 61.429688 L 24.671875 61.429688 L 24.671875 61.15625 C 22.550781 61.15625 20.429688 61.15625 18.304688 61.15625 Z M 18.304688 60.386719 C 20.429688 60.386719 22.550781 60.386719 24.671875 60.386719 L 24.671875 60.003906 C 22.550781 60.003906 20.429688 60.003906 18.304688 60.003906 Z M 18.304688 56.164062 C 20.429688 56.164062 22.550781 56.164062 24.671875 56.164062 L 24.671875 55.78125 C 22.550781 55.78125 20.429688 55.78125 18.304688 55.78125 Z M 18.304688 54.246094 C 20.429688 54.246094 22.550781 54.246094 24.671875 54.246094 L 24.671875 53.863281 C 22.550781 53.863281 20.429688 53.863281 18.304688 53.863281 Z M 18.304688 51.941406 C 20.429688 51.941406 22.550781 51.941406 24.671875 51.941406 L 24.671875 51.558594 C 22.550781 51.558594 20.429688 51.558594 18.304688 51.558594 Z M 18.304688 50.792969 C 20.429688 50.792969 22.550781 50.792969 24.671875 50.792969 L 24.671875 50.40625 C 22.550781 50.40625 20.429688 50.40625 18.304688 50.40625 Z M 18.304688 45.417969 C 20.429688 45.417969 22.550781 45.417969 24.671875 45.417969 L 24.671875 45.035156 C 22.550781 45.035156 20.429688 45.035156 18.304688 45.035156 Z M 18.304688 44.648438 C 20.429688 44.648438 22.550781 44.648438 24.671875 44.648438 L 24.671875 44.265625 C 22.550781 44.265625 20.429688 44.265625 18.304688 44.265625 Z M 18.304688 41.578125 C 20.429688 41.578125 22.550781 41.578125 24.671875 41.578125 L 24.671875 41.195312 C 22.550781 41.195312 20.429688 41.195312 18.304688 41.195312 Z M 18.304688 40.425781 C 20.429688 40.425781 22.550781 40.425781 24.671875 40.425781 L 24.671875 40.042969 C 22.550781 40.042969 20.429688 40.042969 18.304688 40.042969 Z M 18.304688 38.9375 L 18.304688 39.277344 C 20.429688 39.277344 22.550781 39.277344 24.671875 39.277344 L 24.671875 38.890625 C 22.550781 38.890625 20.429688 38.890625 18.304688 38.890625 Z M 18.304688 38.125 C 20.429688 38.125 22.550781 38.125 24.671875 38.125 L 24.671875 37.738281 C 22.550781 37.738281 20.429688 37.738281 18.304688 37.738281 Z M 18.304688 35.054688 C 20.429688 35.054688 22.550781 35.054688 24.671875 35.054688 L 24.671875 34.667969 C 22.550781 34.667969 20.429688 34.667969 18.304688 34.667969 Z M 18.304688 30.484375 L 18.304688 30.832031 C 20.429688 30.832031 22.550781 30.832031 24.671875 30.832031 L 24.671875 30.445312 C 22.550781 30.445312 20.429688 30.445312 18.304688 30.445312 Z M 18.304688 28.910156 C 20.429688 28.910156 22.550781 28.910156 24.671875 28.910156 L 24.671875 28.527344 C 22.550781 28.527344 20.429688 28.527344 18.304688 28.527344 Z M 18.304688 26.609375 C 20.429688 26.609375 22.550781 26.609375 24.671875 26.609375 L 24.671875 26.222656 C 22.550781 26.222656 20.429688 26.222656 18.304688 26.222656 Z M 18.304688 23.152344 C 20.429688 23.152344 22.550781 23.152344 24.671875 23.152344 L 24.671875 22.769531 C 22.550781 22.769531 20.429688 22.769531 18.304688 22.769531 Z M 18.304688 18.929688 C 20.429688 18.929688 22.550781 18.929688 24.671875 18.929688 L 24.671875 18.546875 C 22.550781 18.546875 20.429688 18.546875 18.304688 18.546875 Z M 18.304688 18.164062 C 20.429688 18.164062 22.550781 18.164062 24.671875 18.164062 L 24.671875 17.78125 C 22.550781 17.78125 20.429688 17.78125 18.304688 17.78125 Z M 18.304688 13.558594 L 18.304688 13.941406 C 20.429688 13.941406 22.550781 13.941406 24.671875 13.941406 L 24.671875 13.558594 Z M 18.304688 13.558594 "/></g><g style="fill:#ffffff;fill-opacity:1;"><g transform="translate(49.442025, 47.565541)"><path style="stroke:none" d="M -1.0625 -29.402344 L 51.269531 -29.402344 L 31.941406 3.34375 L 31.28125 2.222656 C 29.570312 -0.683594 27.867188 -3.535156 26.167969 -6.335938 C 24.464844 -9.140625 22.769531 -11.984375 21.082031 -14.871094 L 21.742188 -15.257812 L 22.269531 -14.703125 L 21.375 -13.847656 L 20.84375 -14.398438 L 21.503906 -14.789062 L 24.632812 -9.5 L 16.921875 3.332031 L -2.402344 -29.402344 Z M -1.0625 -27.871094 L -1.0625 -28.636719 L -0.402344 -29.027344 L 17.589844 1.445312 L 16.929688 1.835938 L 16.273438 1.441406 L 23.085938 -9.898438 L 23.742188 -9.503906 L 23.082031 -9.117188 L 19.878906 -14.535156 L 21.914062 -16.476562 L 22.402344 -15.644531 C 24.085938 -12.765625 25.777344 -9.925781 27.476562 -7.128906 C 29.175781 -4.324219 30.886719 -1.464844 32.601562 1.449219 L 31.941406 1.835938 L 31.28125 1.445312 L 49.273438 -29.027344 L 49.929688 -28.636719 L 49.929688 -27.871094 Z M -1.0625 -27.871094 "/></g></g><g style="fill:#ffffff;fill-opacity:1;"><g transform="translate(98.309256, 47.565541)"><path style="stroke:none" d="M 1.222656 -29.363281 L 15.65625 -29.363281 L 15.65625 -18.070312 L 14.890625 -18.070312 L 14.890625 -18.835938 L 16.113281 -18.835938 L 16.113281 -18.070312 L 15.347656 -18.070312 L 15.347656 -29.363281 L 30.542969 -29.363281 L 30.542969 0.722656 L 15.347656 0.722656 L 15.347656 -10.566406 L 16.113281 -10.566406 L 16.113281 -9.800781 L 14.890625 -9.800781 L 14.890625 -10.566406 L 15.65625 -10.566406 L 15.65625 0.722656 L 0.457031 0.722656 L 0.457031 -29.363281 Z M 1.222656 -27.832031 L 1.222656 -28.597656 L 1.988281 -28.597656 L 1.988281 -0.0390625 L 1.222656 -0.0390625 L 1.222656 -0.804688 L 14.890625 -0.804688 L 14.890625 -0.0390625 L 14.125 -0.0390625 L 14.125 -11.332031 L 16.878906 -11.332031 L 16.878906 -0.0390625 L 16.113281 -0.0390625 L 16.113281 -0.804688 L 29.78125 -0.804688 L 29.78125 -0.0390625 L 29.015625 -0.0390625 L 29.015625 -28.597656 L 29.78125 -28.597656 L 29.78125 -27.832031 L 16.113281 -27.832031 L 16.113281 -28.597656 L 16.878906 -28.597656 L 16.878906 -17.304688 L 14.125 -17.304688 L 14.125 -28.597656 L 14.890625 -28.597656 L 14.890625 -27.832031 Z M 1.222656 -27.832031 "/></g></g><g style="fill:#ffffff;fill-opacity:1;"><g transform="translate(129.35096, 47.565541)"><path style="stroke:none" d="M -1.800781 -0.390625 L 16.886719 -32.058594 L 36.257812 0.765625 L -2.480469 0.765625 Z M -0.484375 0.390625 L -1.140625 0 L -1.140625 -0.765625 L 34.917969 -0.765625 L 34.917969 0 L 34.261719 0.390625 L 16.230469 -30.164062 L 16.886719 -30.554688 L 17.546875 -30.164062 Z M -0.484375 0.390625 "/></g></g><g clip-rule="nonzero" clip-path="url(#0f3bc864b8)"><path style=" stroke:none;fill-rule:nonzero;fill:#ec1d25;fill-opacity:1;" d="M -0.265625 43.679688 L -0.265625 19.167969 L 19.265625 31.398438 L 6.46875 31.398438 L 18.75 43.679688 L -0.265625 43.679688 "/><path style=" stroke:none;fill-rule:nonzero;fill:#ec1d25;fill-opacity:1;" d="M -0.746094 18.296875 L -0.746094 44.164062 L 19.914062 44.164062 L 18.269531 42.515625 L 7.632812 31.882812 L 20.945312 31.882812 L 18.097656 30.097656 L 0.730469 19.222656 Z M 0.21875 20.039062 L 17.585938 30.917969 L 5.304688 30.917969 L 17.585938 43.199219 L 0.21875 43.199219 L 0.21875 20.039062 "/><path style=" stroke:none;fill-rule:nonzero;fill:#f2f9f8;fill-opacity:1;" d="M 3.960938 34.820312 L 4.558594 33.351562 L 5.160156 34.820312 L 6.414062 33.847656 L 6.195312 35.417969 L 7.769531 35.203125 L 6.796875 36.457031 L 8.265625 37.058594 L 6.796875 37.65625 L 7.769531 38.910156 L 6.195312 38.695312 L 6.414062 40.265625 L 5.160156 39.292969 L 4.558594 40.761719 L 3.960938 39.292969 L 2.707031 40.265625 L 2.921875 38.695312 L 1.351562 38.910156 L 2.324219 37.65625 L 0.855469 37.058594 L 2.324219 36.457031 L 1.351562 35.203125 L 2.921875 35.417969 L 2.707031 33.847656 L 3.960938 34.820312 "/></g><g clip-rule="nonzero" clip-path="url(#6f1c24deb8)"><path style=" stroke:none;fill-rule:nonzero;fill:#ec1d25;fill-opacity:1;" d="M 161.554688 30.277344 L 195.359375 30.277344 L 178.492188 57.214844 L 178.492188 39.566406 L 161.554688 56.503906 L 161.554688 30.277344 "/><path style=" stroke:none;fill-rule:nonzero;fill:#003893;fill-opacity:1;" d="M 196.5625 29.613281 L 160.886719 29.613281 L 160.886719 58.109375 L 163.160156 55.839844 L 177.828125 41.171875 L 177.828125 59.53125 L 180.285156 55.605469 L 195.285156 31.648438 Z M 194.160156 30.945312 L 179.15625 54.898438 L 179.15625 37.960938 L 162.21875 54.898438 L 162.21875 30.945312 L 194.160156 30.945312 "/></g><g clip-rule="nonzero" clip-path="url(#f4842a0201)"><path style=" stroke:none;fill-rule:nonzero;fill:#ffffff;fill-opacity:1;" d="M 184.777344 41.722656 C 184.808594 41.722656 184.835938 41.722656 184.867188 41.722656 C 183.542969 41.226562 182.480469 40.203125 181.9375 38.90625 L 182.183594 38.714844 L 182.660156 39.886719 L 183.136719 38.714844 L 184.136719 39.492188 L 183.964844 38.238281 L 185.21875 38.410156 L 184.445312 37.410156 L 185.613281 36.933594 L 184.445312 36.453125 L 185.21875 35.453125 L 183.964844 35.625 L 184.136719 34.375 L 183.136719 35.148438 L 182.660156 33.976562 L 182.183594 35.148438 L 181.9375 34.957031 C 182.480469 33.660156 183.546875 32.636719 184.867188 32.140625 C 184.835938 32.140625 184.808594 32.140625 184.777344 32.140625 C 182.640625 32.140625 180.832031 33.539062 180.210938 35.46875 L 180.203125 35.496094 C 180.199219 35.507812 180.199219 35.519531 180.195312 35.53125 L 180.183594 35.5625 C 180.066406 35.960938 179.996094 36.382812 179.988281 36.816406 C 179.984375 36.855469 179.984375 36.894531 179.984375 36.933594 C 179.984375 36.96875 179.984375 37.007812 179.988281 37.046875 C 179.996094 37.480469 180.066406 37.902344 180.183594 38.300781 L 180.195312 38.335938 C 180.195312 38.34375 180.199219 38.355469 180.203125 38.363281 L 180.210938 38.390625 C 180.210938 38.390625 180.210938 38.390625 180.210938 38.394531 C 180.832031 40.324219 182.640625 41.722656 184.777344 41.722656 "/></g></g></svg>