<svg xmlns="http://www.w3.org/2000/svg" xmlns:xlink="http://www.w3.org/1999/xlink" width="250" zoomAndPan="magnify" viewBox="0 0 187.5 74.999997" height="100" preserveAspectRatio="xMidYMid meet" version="1.2"><defs><clipPath id="fa403000bf"><path d="M 0 0.101562 L 187 0.101562 L 187 74.898438 L 0 74.898438 Z M 0 0.101562 "/></clipPath><clipPath id="15bd4fa35a"><path d="M 0 0.101562 L 187 0.101562 L 187 74.898438 L 0 74.898438 Z M 0 0.101562 "/></clipPath><clipPath id="8d1bc0bdeb"><path d="M 7.480469 0.101562 L 179.519531 0.101562 C 181.503906 0.101562 183.40625 0.886719 184.808594 2.289062 C 186.214844 3.695312 187 5.597656 187 7.578125 L 187 67.421875 C 187 69.402344 186.214844 71.304688 184.808594 72.710938 C 183.40625 74.113281 181.503906 74.898438 179.519531 74.898438 L 7.480469 74.898438 C 5.496094 74.898438 3.59375 74.113281 2.191406 72.710938 C 0.789062 71.304688 0 69.402344 0 67.421875 L 0 7.578125 C 0 5.597656 0.789062 3.695312 2.191406 2.289062 C 3.59375 0.886719 5.496094 0.101562 7.480469 0.101562 Z M 7.480469 0.101562 "/></clipPath><clipPath id="2f9beb68e9"><path d="M 24.710938 0.101562 L 47.152344 0.101562 L 47.152344 7.578125 L 24.710938 7.578125 Z M 24.710938 0.101562 "/></clipPath><clipPath id="7a827a11e7"><path d="M 35.933594 -14.859375 C 29.734375 -14.859375 24.710938 -9.835938 24.710938 -3.640625 C 24.710938 2.554688 29.734375 7.578125 35.933594 7.578125 C 42.128906 7.578125 47.152344 2.554688 47.152344 -3.640625 C 47.152344 -9.835938 42.128906 -14.859375 35.933594 -14.859375 Z M 35.933594 -14.859375 "/></clipPath><clipPath id="747f44b5e8"><path d="M 24.710938 67.421875 L 47.152344 67.421875 L 47.152344 74.898438 L 24.710938 74.898438 Z M 24.710938 67.421875 "/></clipPath><clipPath id="0c10de9a67"><path d="M 35.933594 67.421875 C 29.734375 67.421875 24.710938 72.445312 24.710938 78.640625 C 24.710938 84.835938 29.734375 89.859375 35.933594 89.859375 C 42.128906 89.859375 47.152344 84.835938 47.152344 78.640625 C 47.152344 72.445312 42.128906 67.421875 35.933594 67.421875 Z M 35.933594 67.421875 "/></clipPath><clipPath id="9d5e229ec6"><path d="M 0 26.28125 L 12.285156 26.28125 L 12.285156 48.71875 L 0 48.71875 Z M 0 26.28125 "/></clipPath><clipPath id="36101aa216"><path d="M 1.066406 26.28125 C -5.132812 26.28125 -10.15625 31.304688 -10.15625 37.5 C -10.15625 43.695312 -5.132812 48.71875 1.066406 48.71875 C 7.261719 48.71875 12.285156 43.695312 12.285156 37.5 C 12.285156 31.304688 7.261719 26.28125 1.066406 26.28125 Z M 1.066406 26.28125 "/></clipPath><clipPath id="a81691d904"><path d="M 173.277344 26.28125 L 187 26.28125 L 187 48.71875 L 173.277344 48.71875 Z M 173.277344 26.28125 "/></clipPath><clipPath id="36991596c7"><path d="M 184.496094 26.28125 C 178.300781 26.28125 173.277344 31.304688 173.277344 37.5 C 173.277344 43.695312 178.300781 48.71875 184.496094 48.71875 C 190.691406 48.71875 195.714844 43.695312 195.714844 37.5 C 195.714844 31.304688 190.691406 26.28125 184.496094 26.28125 Z M 184.496094 26.28125 "/></clipPath><clipPath id="7624111761"><path d="M 19.765625 13.558594 L 26.496094 13.558594 L 26.496094 61.429688 L 19.765625 61.429688 Z M 19.765625 13.558594 "/></clipPath><clipPath id="51ec30e717"><path d="M 0.746094 32.554688 L 8.976562 32.554688 L 8.976562 40.78125 L 0.746094 40.78125 Z M 0.746094 32.554688 "/></clipPath><clipPath id="4c12348f45"><path d="M 177.402344 31.027344 L 185.628906 31.027344 L 185.628906 43.742188 L 177.402344 43.742188 Z M 177.402344 31.027344 "/></clipPath><clipPath id="bc063a8f65"><path d="M 178 31.027344 L 185 31.027344 L 185 43 L 178 43 Z M 178 31.027344 "/></clipPath></defs><g id="1a12a80c21"><g clip-rule="nonzero" clip-path="url(#fa403000bf)"><path style=" stroke:none;fill-rule:nonzero;fill:#ffffff;fill-opacity:1;" d="M 0 0.101562 L 187 0.101562 L 187 74.898438 L 0 74.898438 Z M 0 0.101562 "/><path style=" stroke:none;fill-rule:nonzero;fill:#ffffff;fill-opacity:1;" d="M 0 0.101562 L 187 0.101562 L 187 74.898438 L 0 74.898438 Z M 0 0.101562 "/></g><g clip-rule="nonzero" clip-path="url(#15bd4fa35a)"><g clip-rule="nonzero" clip-path="url(#8d1bc0bdeb)"><path style=" stroke:none;fill-rule:nonzero;fill:#ec1d25;fill-opacity:1;" d="M 0 0.101562 L 187 0.101562 L 187 74.898438 L 0 74.898438 Z M 0 0.101562 "/><path style="fill:none;stroke-width:2;stroke-linecap:butt;stroke-linejoin:miter;stroke:#ffffff;stroke-opacity:1;stroke-miterlimit:4;" d="M 10.000555 0.00244778 L 239.99769 0.00244778 C 242.650579 0.00244778 245.193802 1.052115 247.06858 2.926893 C 248.94858 4.806893 249.998247 7.350115 249.998247 9.997782 L 249.998247 90.002235 C 249.998247 92.649902 248.94858 95.193125 247.06858 97.073125 C 245.193802 98.947903 242.650579 99.997569 239.99769 99.997569 L 10.000555 99.997569 C 7.347666 99.997569 4.804443 98.947903 2.929665 97.073125 C 1.054887 95.193125 -0.00000178814 92.649902 -0.00000178814 90.002235 L -0.00000178814 9.997782 C -0.00000178814 7.350115 1.054887 4.806893 2.929665 2.926893 C 4.804443 1.052115 7.347666 0.00244778 10.000555 0.00244778 Z M 10.000555 0.00244778 " transform="matrix(0.748005,0,0,0.748005,0.00000133754,0.0997315)"/></g></g><g clip-rule="nonzero" clip-path="url(#2f9beb68e9)"><g clip-rule="nonzero" clip-path="url(#7a827a11e7)"><path style="fill:none;stroke-width:4;stroke-linecap:butt;stroke-linejoin:miter;stroke:#ffffff;stroke-opacity:1;stroke-miterlimit:4;" d="M 15.001484 0.00133584 C 6.713818 0.00133584 -0.00196005 6.717113 -0.00196005 14.999558 C -0.00196005 23.282002 6.713818 29.99778 15.001484 29.99778 C 23.283928 29.99778 29.999706 23.282002 29.999706 14.999558 C 29.999706 6.717113 23.283928 0.00133584 15.001484 0.00133584 Z M 15.001484 0.00133584 " transform="matrix(0.748005,0,0,0.748005,24.712404,-14.860374)"/></g></g><g clip-rule="nonzero" clip-path="url(#747f44b5e8)"><g clip-rule="nonzero" clip-path="url(#0c10de9a67)"><path style="fill:none;stroke-width:4;stroke-linecap:butt;stroke-linejoin:miter;stroke:#ffffff;stroke-opacity:1;stroke-miterlimit:4;" d="M 15.001484 0.00222931 C 6.713818 0.00222931 -0.00196005 6.718007 -0.00196005 15.000451 C -0.00196005 23.282895 6.713818 29.998673 15.001484 29.998673 C 23.283928 29.998673 29.999706 23.282895 29.999706 15.000451 C 29.999706 6.718007 23.283928 0.00222931 15.001484 0.00222931 Z M 15.001484 0.00222931 " transform="matrix(0.748005,0,0,0.748005,24.712404,67.420207)"/></g></g><g clip-rule="nonzero" clip-path="url(#9d5e229ec6)"><g clip-rule="nonzero" clip-path="url(#36101aa216)"><path style="fill:none;stroke-width:4;stroke-linecap:butt;stroke-linejoin:miter;stroke:#ffffff;stroke-opacity:1;stroke-miterlimit:4;" d="M 15.001252 0.00178257 C 6.713585 0.00178257 -0.00219242 6.71756 -0.00219242 15.000004 C -0.00219242 23.282449 6.713585 29.998226 15.001252 29.998226 C 23.283696 29.998226 29.999474 23.282449 29.999474 15.000004 C 29.999474 6.71756 23.283696 0.00178257 15.001252 0.00178257 Z M 15.001252 0.00178257 " transform="matrix(0.748005,0,0,0.748005,-10.15461,26.279917)"/></g></g><g clip-rule="nonzero" clip-path="url(#a81691d904)"><g clip-rule="nonzero" clip-path="url(#36991596c7)"><path style="fill:none;stroke-width:4;stroke-linecap:butt;stroke-linejoin:miter;stroke:#ffffff;stroke-opacity:1;stroke-miterlimit:4;" d="M 15.000102 0.00178257 C 6.717658 0.00178257 0.00188041 6.71756 0.00188041 15.000004 C 0.00188041 23.282449 6.717658 29.998226 15.000102 29.998226 C 23.282547 29.998226 29.998324 23.282449 29.998324 15.000004 C 29.998324 6.71756 23.282547 0.00178257 15.000102 0.00178257 Z M 15.000102 0.00178257 " transform="matrix(0.748005,0,0,0.748005,173.275937,26.279917)"/></g></g><path style=" stroke:none;fill-rule:nonzero;fill:#ffffff;fill-opacity:1;" d="M 35.183594 67.421875 L 35.183594 62.933594 L 36.679688 62.933594 L 36.679688 67.421875 M 35.183594 61.4375 L 35.183594 56.949219 L 36.679688 56.949219 L 36.679688 61.4375 M 35.183594 55.453125 L 35.183594 50.964844 L 36.679688 50.964844 L 36.679688 55.453125 M 35.183594 49.46875 L 35.183594 44.980469 L 36.679688 44.980469 L 36.679688 49.46875 M 35.183594 43.484375 L 35.183594 38.996094 L 36.679688 38.996094 L 36.679688 43.484375 M 35.183594 37.5 L 35.183594 33.011719 L 36.679688 33.011719 L 36.679688 37.5 M 35.183594 31.515625 L 35.183594 27.027344 L 36.679688 27.027344 L 36.679688 31.515625 M 35.183594 25.53125 L 35.183594 21.042969 L 36.679688 21.042969 L 36.679688 25.53125 M 35.183594 19.546875 L 35.183594 15.058594 L 36.679688 15.058594 L 36.679688 19.546875 M 35.183594 13.5625 L 35.183594 9.074219 L 36.679688 9.074219 L 36.679688 13.5625 "/><g style="fill:#ffffff;fill-opacity:1;"><g transform="translate(107.111154, 59.36155)"><path style="stroke:none" d="M 5.847656 0 L 5.847656 -5.320312 L 0.535156 -5.320312 L 0.535156 0 L 1.597656 0 L 1.597656 -2.128906 L 4.789062 -2.128906 L 4.789062 0 Z M 4.789062 -3.191406 L 1.597656 -3.191406 L 1.597656 -4.253906 L 4.789062 -4.253906 Z M 4.789062 -3.191406 "/></g></g><g style="fill:#ffffff;fill-opacity:1;"><g transform="translate(114.4596, 59.36155)"><path style="stroke:none" d="M 5.847656 0 L 5.847656 -5.320312 L 4.789062 -5.320312 L 4.789062 -1.0625 L 1.597656 -1.0625 L 1.597656 -5.320312 L 0.535156 -5.320312 L 0.535156 0 Z M 5.847656 0 "/></g></g><g style="fill:#ffffff;fill-opacity:1;"><g transform="translate(121.808046, 59.36155)"><path style="stroke:none" d="M 5.847656 0 L 5.847656 -3.191406 L 1.597656 -3.191406 L 1.597656 -4.253906 L 5.847656 -4.253906 L 5.847656 -5.320312 L 0.535156 -5.320312 L 0.535156 -2.128906 L 4.789062 -2.128906 L 4.789062 -1.0625 L 0.535156 -1.0625 L 0.535156 0 Z M 5.847656 0 "/></g></g><g style="fill:#ffffff;fill-opacity:1;"><g transform="translate(129.156492, 59.36155)"><path style="stroke:none" d="M 5.847656 -4.253906 L 5.847656 -5.320312 L 0.535156 -5.320312 L 0.535156 -4.253906 L 2.65625 -4.253906 L 2.65625 0 L 3.726562 0 L 3.726562 -4.253906 Z M 5.847656 -4.253906 "/></g></g><g style="fill:#ffffff;fill-opacity:1;"><g transform="translate(136.504938, 59.36155)"><path style="stroke:none" d="M 5.847656 -2.128906 L 5.847656 -5.320312 L 0.535156 -5.320312 L 0.535156 0 L 1.597656 0 L 1.597656 -2.128906 L 3.726562 -2.128906 L 3.726562 0 L 4.789062 0 L 4.789062 -2.128906 Z M 4.789062 -3.191406 L 1.597656 -3.191406 L 1.597656 -4.253906 L 4.789062 -4.253906 Z M 4.789062 -3.191406 "/></g></g><g style="fill:#ffffff;fill-opacity:1;"><g transform="translate(143.853384, 59.36155)"><path style="stroke:none" d="M 5.847656 0 L 5.847656 -5.320312 L 0.535156 -5.320312 L 0.535156 0 L 1.597656 0 L 1.597656 -2.128906 L 4.789062 -2.128906 L 4.789062 0 Z M 4.789062 -3.191406 L 1.597656 -3.191406 L 1.597656 -4.253906 L 4.789062 -4.253906 Z M 4.789062 -3.191406 "/></g></g><g style="fill:#ffffff;fill-opacity:1;"><g transform="translate(151.201831, 59.36155)"><path style="stroke:none" d="M 5.847656 0 L 5.847656 -1.0625 L 1.597656 -1.0625 L 1.597656 -5.320312 L 0.535156 -5.320312 L 0.535156 0 Z M 5.847656 0 "/></g></g><g style="fill:#ffffff;fill-opacity:1;"><g transform="translate(158.550277, 59.36155)"><path style="stroke:none" d="M 1.597656 0 L 1.597656 -5.320312 L 0.535156 -5.320312 L 0.535156 0 Z M 1.597656 0 "/></g></g><g style="fill:#ffffff;fill-opacity:1;"><g transform="translate(161.646036, 59.36155)"><path style="stroke:none" d="M 5.847656 0 L 5.847656 -5.320312 L 0.535156 -5.320312 L 0.535156 0 L 1.597656 0 L 1.597656 -2.128906 L 4.789062 -2.128906 L 4.789062 0 Z M 4.789062 -3.191406 L 1.597656 -3.191406 L 1.597656 -4.253906 L 4.789062 -4.253906 Z M 4.789062 -3.191406 "/></g></g><g clip-rule="nonzero" clip-path="url(#7624111761)"><path style=" stroke:none;fill-rule:nonzero;fill:#ffffff;fill-opacity:1;" d="M 19.800781 41.960938 C 21.921875 41.960938 24.042969 41.960938 26.167969 41.960938 L 26.167969 43.5 C 24.042969 43.5 21.921875 43.5 19.800781 43.5 Z M 19.800781 25.074219 C 21.921875 25.074219 24.042969 25.074219 26.167969 25.074219 L 26.167969 23.539062 C 24.042969 23.539062 21.921875 23.539062 19.800781 23.539062 Z M 19.800781 22.386719 C 21.921875 22.386719 24.042969 22.386719 26.167969 22.386719 L 26.167969 20.851562 C 24.042969 20.851562 21.921875 20.851562 19.800781 20.851562 Z M 19.800781 32.367188 C 21.921875 32.367188 24.042969 32.367188 26.167969 32.367188 L 26.167969 31.214844 C 24.042969 31.214844 21.921875 31.214844 19.800781 31.214844 Z M 19.800781 17.394531 C 21.921875 17.394531 24.042969 17.394531 26.167969 17.394531 L 26.167969 16.242188 C 24.042969 16.242188 21.921875 16.242188 19.800781 16.242188 Z M 19.800781 57.699219 C 21.921875 57.699219 24.042969 57.699219 26.167969 57.699219 L 26.167969 56.550781 C 24.042969 56.550781 21.921875 56.550781 19.800781 56.550781 Z M 19.800781 20.464844 C 21.921875 20.464844 24.042969 20.464844 26.167969 20.464844 L 26.167969 19.316406 C 24.042969 19.316406 21.921875 19.316406 19.800781 19.316406 Z M 19.800781 28.144531 C 21.917969 28.144531 24.039062 28.144531 26.167969 28.144531 L 26.167969 27.375 C 24.039062 27.375 21.917969 27.375 19.800781 27.375 Z M 19.800781 15.476562 C 21.917969 15.476562 24.039062 15.476562 26.167969 15.476562 L 26.167969 14.707031 C 24.039062 14.707031 21.917969 14.707031 19.800781 14.707031 Z M 19.800781 59.234375 C 21.917969 59.234375 24.039062 59.234375 26.167969 59.234375 L 26.167969 58.46875 C 24.039062 58.46875 21.917969 58.46875 19.800781 58.46875 Z M 19.800781 37.355469 C 21.917969 37.355469 24.039062 37.355469 26.167969 37.355469 L 26.167969 36.589844 C 24.039062 36.589844 21.917969 36.589844 19.800781 36.589844 Z M 19.800781 53.476562 C 21.917969 53.476562 24.039062 53.476562 26.167969 53.476562 L 26.167969 52.710938 C 24.039062 52.710938 21.917969 52.710938 19.800781 52.710938 Z M 19.800781 33.902344 C 21.917969 33.902344 24.039062 33.902344 26.167969 33.902344 L 26.167969 33.132812 C 24.039062 33.132812 21.917969 33.132812 19.800781 33.132812 Z M 19.800781 50.023438 C 21.917969 50.023438 24.039062 50.023438 26.167969 50.023438 L 26.167969 49.257812 C 24.039062 49.257812 21.917969 49.257812 19.800781 49.257812 Z M 19.800781 47.71875 C 21.917969 47.71875 24.039062 47.71875 26.167969 47.71875 L 26.167969 46.953125 C 24.039062 46.953125 21.917969 46.953125 19.800781 46.953125 Z M 19.800781 61.429688 L 26.167969 61.429688 L 26.167969 61.15625 C 24.046875 61.15625 21.925781 61.15625 19.800781 61.15625 Z M 19.800781 60.386719 C 21.921875 60.386719 24.046875 60.386719 26.167969 60.386719 L 26.167969 60.003906 C 24.046875 60.003906 21.925781 60.003906 19.800781 60.003906 Z M 19.800781 56.164062 C 21.921875 56.164062 24.046875 56.164062 26.167969 56.164062 L 26.167969 55.78125 C 24.046875 55.78125 21.925781 55.78125 19.800781 55.78125 Z M 19.800781 54.246094 C 21.921875 54.246094 24.046875 54.246094 26.167969 54.246094 L 26.167969 53.863281 C 24.046875 53.863281 21.925781 53.863281 19.800781 53.863281 Z M 19.800781 51.941406 C 21.921875 51.941406 24.046875 51.941406 26.167969 51.941406 L 26.167969 51.558594 C 24.046875 51.558594 21.925781 51.558594 19.800781 51.558594 Z M 19.800781 50.792969 C 21.921875 50.792969 24.046875 50.792969 26.167969 50.792969 L 26.167969 50.40625 C 24.046875 50.40625 21.925781 50.40625 19.800781 50.40625 Z M 19.800781 45.417969 C 21.921875 45.417969 24.046875 45.417969 26.167969 45.417969 L 26.167969 45.035156 C 24.046875 45.035156 21.925781 45.035156 19.800781 45.035156 Z M 19.800781 44.648438 C 21.921875 44.648438 24.046875 44.648438 26.167969 44.648438 L 26.167969 44.265625 C 24.046875 44.265625 21.925781 44.265625 19.800781 44.265625 Z M 19.800781 41.578125 C 21.921875 41.578125 24.046875 41.578125 26.167969 41.578125 L 26.167969 41.195312 C 24.046875 41.195312 21.925781 41.195312 19.800781 41.195312 Z M 19.800781 40.425781 C 21.921875 40.425781 24.046875 40.425781 26.167969 40.425781 L 26.167969 40.042969 C 24.046875 40.042969 21.925781 40.042969 19.800781 40.042969 Z M 19.800781 38.9375 L 19.800781 39.277344 C 21.921875 39.277344 24.046875 39.277344 26.167969 39.277344 L 26.167969 38.890625 C 24.046875 38.890625 21.925781 38.890625 19.800781 38.890625 Z M 19.800781 38.125 C 21.921875 38.125 24.046875 38.125 26.167969 38.125 L 26.167969 37.738281 C 24.046875 37.738281 21.925781 37.738281 19.800781 37.738281 Z M 19.800781 35.054688 C 21.921875 35.054688 24.046875 35.054688 26.167969 35.054688 L 26.167969 34.667969 C 24.046875 34.667969 21.925781 34.667969 19.800781 34.667969 Z M 19.800781 30.484375 L 19.800781 30.832031 C 21.921875 30.832031 24.046875 30.832031 26.167969 30.832031 L 26.167969 30.445312 C 24.046875 30.445312 21.925781 30.445312 19.800781 30.445312 Z M 19.800781 28.910156 C 21.921875 28.910156 24.046875 28.910156 26.167969 28.910156 L 26.167969 28.527344 C 24.046875 28.527344 21.925781 28.527344 19.800781 28.527344 Z M 19.800781 26.609375 C 21.925781 26.609375 24.046875 26.609375 26.167969 26.609375 L 26.167969 26.222656 C 24.046875 26.222656 21.925781 26.222656 19.800781 26.222656 Z M 19.800781 23.152344 C 21.921875 23.152344 24.046875 23.152344 26.167969 23.152344 L 26.167969 22.769531 C 24.046875 22.769531 21.925781 22.769531 19.800781 22.769531 Z M 19.800781 18.929688 C 21.921875 18.929688 24.046875 18.929688 26.167969 18.929688 L 26.167969 18.546875 C 24.046875 18.546875 21.925781 18.546875 19.800781 18.546875 Z M 19.800781 18.164062 C 21.925781 18.164062 24.046875 18.164062 26.167969 18.164062 L 26.167969 17.78125 C 24.046875 17.78125 21.925781 17.78125 19.800781 17.78125 Z M 19.800781 13.558594 L 19.800781 13.941406 C 21.921875 13.941406 24.046875 13.941406 26.167969 13.941406 L 26.167969 13.558594 Z M 19.800781 13.558594 "/></g><g style="fill:#ffffff;fill-opacity:1;"><g transform="translate(49.442025, 47.565541)"><path style="stroke:none" d="M -1.0625 -29.402344 L 51.269531 -29.402344 L 31.941406 3.34375 L 31.28125 2.222656 C 29.570312 -0.683594 27.867188 -3.535156 26.167969 -6.335938 C 24.464844 -9.140625 22.769531 -11.984375 21.082031 -14.871094 L 21.742188 -15.257812 L 22.269531 -14.703125 L 21.375 -13.847656 L 20.84375 -14.398438 L 21.503906 -14.789062 L 24.632812 -9.5 L 16.921875 3.332031 L -2.402344 -29.402344 Z M -1.0625 -27.871094 L -1.0625 -28.636719 L -0.402344 -29.027344 L 17.589844 1.445312 L 16.929688 1.835938 L 16.273438 1.441406 L 23.085938 -9.898438 L 23.742188 -9.503906 L 23.082031 -9.117188 L 19.878906 -14.535156 L 21.914062 -16.476562 L 22.402344 -15.644531 C 24.085938 -12.765625 25.777344 -9.925781 27.476562 -7.128906 C 29.175781 -4.324219 30.886719 -1.464844 32.601562 1.449219 L 31.941406 1.835938 L 31.28125 1.445312 L 49.273438 -29.027344 L 49.929688 -28.636719 L 49.929688 -27.871094 Z M -1.0625 -27.871094 "/></g></g><g style="fill:#ffffff;fill-opacity:1;"><g transform="translate(98.309256, 47.565541)"><path style="stroke:none" d="M 1.222656 -29.363281 L 15.65625 -29.363281 L 15.65625 -18.070312 L 14.890625 -18.070312 L 14.890625 -18.835938 L 16.113281 -18.835938 L 16.113281 -18.070312 L 15.347656 -18.070312 L 15.347656 -29.363281 L 30.542969 -29.363281 L 30.542969 0.722656 L 15.347656 0.722656 L 15.347656 -10.566406 L 16.113281 -10.566406 L 16.113281 -9.800781 L 14.890625 -9.800781 L 14.890625 -10.566406 L 15.65625 -10.566406 L 15.65625 0.722656 L 0.457031 0.722656 L 0.457031 -29.363281 Z M 1.222656 -27.832031 L 1.222656 -28.597656 L 1.988281 -28.597656 L 1.988281 -0.0390625 L 1.222656 -0.0390625 L 1.222656 -0.804688 L 14.890625 -0.804688 L 14.890625 -0.0390625 L 14.125 -0.0390625 L 14.125 -11.332031 L 16.878906 -11.332031 L 16.878906 -0.0390625 L 16.113281 -0.0390625 L 16.113281 -0.804688 L 29.78125 -0.804688 L 29.78125 -0.0390625 L 29.015625 -0.0390625 L 29.015625 -28.597656 L 29.78125 -28.597656 L 29.78125 -27.832031 L 16.113281 -27.832031 L 16.113281 -28.597656 L 16.878906 -28.597656 L 16.878906 -17.304688 L 14.125 -17.304688 L 14.125 -28.597656 L 14.890625 -28.597656 L 14.890625 -27.832031 Z M 1.222656 -27.832031 "/></g></g><g style="fill:#ffffff;fill-opacity:1;"><g transform="translate(129.35096, 47.565541)"><path style="stroke:none" d="M -1.800781 -0.390625 L 16.886719 -32.058594 L 36.257812 0.765625 L -2.480469 0.765625 Z M -0.484375 0.390625 L -1.140625 0 L -1.140625 -0.765625 L 34.917969 -0.765625 L 34.917969 0 L 34.261719 0.390625 L 16.230469 -30.164062 L 16.886719 -30.554688 L 17.546875 -30.164062 Z M -0.484375 0.390625 "/></g></g><g clip-rule="nonzero" clip-path="url(#51ec30e717)"><path style=" stroke:none;fill-rule:nonzero;fill:#ec1d25;fill-opacity:1;" d="M -0.359375 44.042969 L -0.359375 17.105469 L 21.105469 30.546875 L 7.042969 30.546875 L 20.539062 44.042969 L -0.359375 44.042969 "/><path style=" stroke:none;fill-rule:nonzero;fill:#ec1d25;fill-opacity:1;" d="M -0.890625 16.148438 L -0.890625 44.574219 L 21.816406 44.574219 L 20.007812 42.761719 L 8.320312 31.078125 L 22.949219 31.078125 L 19.820312 29.117188 L 0.734375 17.164062 Z M 0.171875 18.0625 L 19.257812 30.015625 L 5.761719 30.015625 L 19.257812 43.511719 L 0.171875 43.511719 L 0.171875 18.0625 "/><path style=" stroke:none;fill-rule:nonzero;fill:#f2f9f8;fill-opacity:1;" d="M 4.285156 34.304688 L 4.941406 32.691406 L 5.601562 34.304688 L 6.980469 33.238281 L 6.742188 34.964844 L 8.46875 34.730469 L 7.402344 36.105469 L 9.015625 36.765625 L 7.402344 37.421875 L 8.46875 38.800781 L 6.742188 38.5625 L 6.980469 40.292969 L 5.601562 39.222656 L 4.941406 40.835938 L 4.285156 39.222656 L 2.90625 40.292969 L 3.144531 38.5625 L 1.417969 38.800781 L 2.484375 37.421875 L 0.871094 36.765625 L 2.484375 36.105469 L 1.417969 34.730469 L 3.144531 34.964844 L 2.90625 33.238281 L 4.285156 34.304688 "/></g><g clip-rule="nonzero" clip-path="url(#4c12348f45)"><path style=" stroke:none;fill-rule:nonzero;fill:#ec1d25;fill-opacity:1;" d="M 156.640625 29.5 L 196.324219 29.5 L 176.523438 61.121094 L 176.523438 40.402344 L 156.640625 60.289062 L 156.640625 29.5 "/><path style=" stroke:none;fill-rule:nonzero;fill:#003893;fill-opacity:1;" d="M 197.734375 28.71875 L 155.859375 28.71875 L 155.859375 62.171875 L 175.742188 42.289062 L 175.742188 63.839844 L 178.628906 59.230469 L 196.238281 31.109375 Z M 194.914062 30.28125 L 177.304688 58.402344 L 177.304688 38.519531 L 157.421875 58.402344 L 157.421875 30.28125 L 194.914062 30.28125 "/></g><g clip-rule="nonzero" clip-path="url(#bc063a8f65)"><path style=" stroke:none;fill-rule:nonzero;fill:#ffffff;fill-opacity:1;" d="M 183.898438 42.9375 C 183.933594 42.9375 183.972656 42.933594 184.007812 42.933594 C 182.453125 42.355469 181.207031 41.152344 180.566406 39.628906 L 180.855469 39.40625 L 181.414062 40.78125 L 181.976562 39.40625 L 183.148438 40.316406 L 182.949219 38.84375 L 184.417969 39.046875 L 183.507812 37.871094 L 184.882812 37.3125 L 183.507812 36.75 L 184.417969 35.578125 L 182.949219 35.777344 L 183.148438 34.308594 L 181.976562 35.21875 L 181.414062 33.84375 L 180.855469 35.21875 L 180.566406 34.996094 C 181.207031 33.472656 182.453125 32.269531 184.007812 31.6875 C 183.972656 31.6875 183.933594 31.6875 183.898438 31.6875 C 181.390625 31.6875 179.269531 33.328125 178.542969 35.59375 L 178.53125 35.628906 C 178.527344 35.640625 178.523438 35.652344 178.519531 35.664062 L 178.507812 35.703125 C 178.371094 36.171875 178.289062 36.664062 178.277344 37.175781 L 178.277344 37.179688 C 178.277344 37.222656 178.277344 37.265625 178.277344 37.3125 C 178.277344 37.355469 178.277344 37.402344 178.277344 37.445312 C 178.289062 37.957031 178.371094 38.453125 178.507812 38.921875 L 178.519531 38.957031 C 178.523438 38.96875 178.527344 38.980469 178.53125 38.992188 L 178.539062 39.023438 C 178.539062 39.023438 178.542969 39.027344 178.542969 39.027344 C 179.269531 41.292969 181.390625 42.9375 183.898438 42.9375 "/></g></g></svg>