<svg xmlns="http://www.w3.org/2000/svg" xmlns:xlink="http://www.w3.org/1999/xlink" width="500" zoomAndPan="magnify" viewBox="0 0 375 149.999998" height="200" preserveAspectRatio="xMidYMid meet" version="1.2"><defs><clipPath id="d5298d373d"><path d="M 0.09375 0.0078125 L 343.5 0.0078125 L 343.5 149.949219 L 0.09375 149.949219 Z M 0.09375 0.0078125 "/></clipPath><clipPath id="6e54959855"><path d="M 26.46875 16.597656 L 42.21875 16.597656 L 42.21875 133.597656 L 26.46875 133.597656 Z M 26.46875 16.597656 "/></clipPath></defs><g id="b5a36fc7a2"><g clip-rule="nonzero" clip-path="url(#d5298d373d)"><path style=" stroke:none;fill-rule:nonzero;fill:#3a80f5;fill-opacity:1;" d="M 93.769531 108.179688 C 95.445312 109.855469 96.402344 110.8125 98.082031 112.488281 C 99.757812 110.8125 100.714844 109.855469 102.390625 108.179688 L 102.390625 41.777344 C 100.714844 40.101562 99.757812 39.144531 98.082031 37.46875 C 96.402344 39.144531 95.445312 40.101562 93.769531 41.777344 Z M 4.121094 136.65625 C 4.121094 134.433594 2.316406 132.628906 0.09375 132.628906 L 0.09375 129.4375 C 2.316406 129.4375 4.121094 127.632812 4.121094 125.410156 C 4.121094 123.1875 2.316406 121.382812 0.09375 121.382812 L 0.09375 118.191406 C 2.316406 118.191406 4.121094 116.386719 4.121094 114.164062 C 4.121094 111.941406 2.316406 110.136719 0.09375 110.136719 L 0.09375 106.945312 C 2.316406 106.945312 4.121094 105.140625 4.121094 102.917969 C 4.121094 100.695312 2.316406 98.890625 0.09375 98.890625 L 0.09375 95.46875 C 11.410156 95.46875 20.585938 86.296875 20.585938 74.980469 C 20.585938 63.664062 11.410156 54.488281 0.09375 54.488281 L 0.09375 51.066406 C 2.316406 51.066406 4.121094 49.265625 4.121094 47.039062 C 4.121094 44.816406 2.316406 43.015625 0.09375 43.015625 L 0.09375 39.820312 C 2.316406 39.820312 4.121094 38.015625 4.121094 35.792969 C 4.121094 33.570312 2.316406 31.769531 0.09375 31.769531 L 0.09375 28.574219 C 2.316406 28.574219 4.121094 26.769531 4.121094 24.546875 C 4.121094 22.324219 2.316406 20.519531 0.09375 20.519531 L 0.09375 17.328125 C 2.316406 17.328125 4.121094 15.523438 4.121094 13.300781 C 4.121094 11.113281 2.371094 9.335938 0.199219 9.28125 C 0.890625 4.046875 5.359375 0.0078125 10.777344 0.0078125 L 77.589844 0.0078125 C 77.589844 11.324219 86.761719 20.5 98.082031 20.5 C 109.398438 20.5 118.570312 11.324219 118.570312 0.0078125 L 332.910156 0.0078125 C 338.328125 0.0078125 342.796875 4.046875 343.488281 9.28125 C 341.316406 9.335938 339.566406 11.113281 339.566406 13.300781 C 339.566406 15.523438 341.371094 17.328125 343.59375 17.328125 L 343.59375 20.519531 C 341.371094 20.519531 339.566406 22.324219 339.566406 24.546875 C 339.566406 26.769531 341.371094 28.574219 343.59375 28.574219 L 343.59375 31.769531 C 341.371094 31.769531 339.566406 33.570312 339.566406 35.792969 C 339.566406 38.015625 341.371094 39.820312 343.59375 39.820312 L 343.59375 43.015625 C 341.371094 43.015625 339.566406 44.816406 339.566406 47.039062 C 339.566406 49.265625 341.371094 51.066406 343.59375 51.066406 L 343.59375 54.488281 C 332.277344 54.488281 323.101562 63.664062 323.101562 74.980469 C 323.101562 86.296875 332.277344 95.46875 343.59375 95.46875 L 343.59375 98.890625 C 341.371094 98.890625 339.566406 100.695312 339.566406 102.917969 C 339.566406 105.140625 341.371094 106.945312 343.59375 106.945312 L 343.59375 110.136719 C 341.371094 110.136719 339.566406 111.941406 339.566406 114.164062 C 339.566406 116.386719 341.371094 118.191406 343.59375 118.191406 L 343.59375 121.382812 C 341.371094 121.382812 339.566406 123.1875 339.566406 125.410156 C 339.566406 127.632812 341.371094 129.4375 343.59375 129.4375 L 343.59375 132.628906 C 341.371094 132.628906 339.566406 134.433594 339.566406 136.65625 C 339.566406 138.84375 341.316406 140.621094 343.488281 140.679688 C 342.796875 145.910156 338.328125 149.949219 332.910156 149.949219 L 118.570312 149.949219 C 118.570312 138.632812 109.398438 129.457031 98.082031 129.457031 C 86.761719 129.457031 77.589844 138.632812 77.589844 149.949219 L 10.777344 149.949219 C 5.359375 149.949219 0.890625 145.910156 0.199219 140.679688 C 2.371094 140.621094 4.121094 138.84375 4.121094 136.65625 "/></g><g style="fill:#fefefe;fill-opacity:1;"><g transform="translate(150.751634, 71.049251)"><path style="stroke:none" d="M -0.769531 -21.347656 L 37.226562 -21.347656 L 23.191406 2.425781 L 22.714844 1.613281 C 21.46875 -0.496094 20.234375 -2.566406 19 -4.597656 C 17.765625 -6.636719 16.535156 -8.703125 15.308594 -10.796875 L 15.789062 -11.078125 L 16.171875 -10.675781 L 15.519531 -10.054688 L 15.136719 -10.457031 L 15.613281 -10.738281 L 17.886719 -6.898438 L 12.289062 2.417969 L -1.742188 -21.347656 Z M -0.769531 -20.238281 L -0.769531 -20.792969 L -0.292969 -21.074219 L 12.769531 1.050781 L 12.292969 1.332031 L 11.816406 1.046875 L 16.761719 -7.1875 L 17.238281 -6.902344 L 16.761719 -6.617188 L 14.433594 -10.554688 L 15.910156 -11.964844 L 16.265625 -11.359375 C 17.488281 -9.269531 18.71875 -7.207031 19.949219 -5.175781 C 21.183594 -3.140625 22.425781 -1.0625 23.671875 1.050781 L 23.191406 1.332031 L 22.714844 1.050781 L 35.777344 -21.074219 L 36.253906 -20.792969 L 36.253906 -20.238281 Z M -0.769531 -20.238281 "/></g></g><g style="fill:#fefefe;fill-opacity:1;"><g transform="translate(186.231408, 71.049251)"><path style="stroke:none" d="M 0.886719 -21.320312 L 11.367188 -21.320312 L 11.367188 -13.121094 L 10.8125 -13.121094 L 10.8125 -13.675781 L 11.699219 -13.675781 L 11.699219 -13.121094 L 11.144531 -13.121094 L 11.144531 -21.320312 L 22.179688 -21.320312 L 22.179688 0.527344 L 11.144531 0.527344 L 11.144531 -7.671875 L 11.699219 -7.671875 L 11.699219 -7.117188 L 10.8125 -7.117188 L 10.8125 -7.671875 L 11.367188 -7.671875 L 11.367188 0.527344 L 0.332031 0.527344 L 0.332031 -21.320312 Z M 0.886719 -20.207031 L 0.886719 -20.761719 L 1.445312 -20.761719 L 1.445312 -0.03125 L 0.886719 -0.03125 L 0.886719 -0.585938 L 10.8125 -0.585938 L 10.8125 -0.03125 L 10.253906 -0.03125 L 10.253906 -8.226562 L 12.253906 -8.226562 L 12.253906 -0.03125 L 11.699219 -0.03125 L 11.699219 -0.585938 L 21.621094 -0.585938 L 21.621094 -0.03125 L 21.066406 -0.03125 L 21.066406 -20.761719 L 21.621094 -20.761719 L 21.621094 -20.207031 L 11.699219 -20.207031 L 11.699219 -20.761719 L 12.253906 -20.761719 L 12.253906 -12.566406 L 10.253906 -12.566406 L 10.253906 -20.761719 L 10.8125 -20.761719 L 10.8125 -20.207031 Z M 0.886719 -20.207031 "/></g></g><g style="fill:#fefefe;fill-opacity:1;"><g transform="translate(208.769055, 71.049251)"><path style="stroke:none" d="M -1.308594 -0.28125 L 12.261719 -23.277344 L 26.328125 0.554688 L -1.800781 0.554688 Z M -0.351562 0.28125 L -0.828125 0 L -0.828125 -0.554688 L 25.355469 -0.554688 L 25.355469 0 L 24.875 0.28125 L 11.785156 -21.902344 L 12.261719 -22.183594 L 12.742188 -21.902344 Z M -0.351562 0.28125 "/></g></g><g style="fill:#fefefe;fill-opacity:1;"><g transform="translate(233.202116, 71.049251)"><path style="stroke:none" d="M 15.808594 -10.335938 L 15.808594 0.585938 L 4.332031 0.585938 L 4.332031 -10.335938 L 4.886719 -10.335938 L 4.886719 -9.78125 L 0.0351562 -9.78125 L 0.0351562 -21.289062 L 19.835938 -21.289062 L 19.835938 -9.78125 L 15.253906 -9.78125 L 15.253906 -10.335938 Z M 14.699219 -10.894531 L 19.28125 -10.894531 L 19.28125 -10.335938 L 18.726562 -10.335938 L 18.726562 -20.734375 L 19.28125 -20.734375 L 19.28125 -20.179688 L 0.59375 -20.179688 L 0.59375 -20.734375 L 1.148438 -20.734375 L 1.148438 -10.335938 L 0.59375 -10.335938 L 0.59375 -10.894531 L 5.441406 -10.894531 L 5.441406 0.03125 L 4.886719 0.03125 L 4.886719 -0.527344 L 15.253906 -0.527344 L 15.253906 0.03125 L 14.699219 0.03125 Z M 14.699219 -10.894531 "/></g></g><g style="fill:#fefefe;fill-opacity:1;"><g transform="translate(253.103956, 71.049251)"><path style="stroke:none" d="M 3.328125 -12.300781 L 3.121094 -14.613281 L 3.671875 -14.660156 L 3.5 -14.132812 C 2.726562 -14.382812 2.085938 -14.824219 1.582031 -15.453125 C 1.066406 -16.097656 0.808594 -16.824219 0.808594 -17.625 C 0.808594 -18.339844 0.988281 -18.992188 1.347656 -19.574219 C 1.703125 -20.144531 2.164062 -20.601562 2.734375 -20.945312 C 3.316406 -21.292969 3.964844 -21.46875 4.679688 -21.46875 C 5.796875 -21.46875 6.738281 -21.101562 7.507812 -20.367188 C 8.285156 -19.625 8.671875 -18.710938 8.671875 -17.625 C 8.671875 -17.191406 8.585938 -16.78125 8.417969 -16.386719 C 8.261719 -16.011719 8.058594 -15.671875 7.8125 -15.355469 L 7.808594 -15.347656 L 4.585938 -11.480469 L 3.359375 -11.957031 Z M 4.433594 -12.402344 L 3.878906 -12.351562 L 4.082031 -12.867188 L 4.613281 -12.660156 L 4.414062 -12.144531 L 3.988281 -12.5 L 6.949219 -16.054688 L 7.375 -15.699219 L 6.9375 -16.042969 C 7.125 -16.277344 7.277344 -16.539062 7.398438 -16.820312 C 7.503906 -17.074219 7.558594 -17.34375 7.558594 -17.625 C 7.558594 -18.394531 7.285156 -19.039062 6.738281 -19.5625 C 6.1875 -20.089844 5.5 -20.355469 4.679688 -20.355469 C 4.171875 -20.355469 3.710938 -20.234375 3.308594 -19.992188 C 2.890625 -19.742188 2.550781 -19.40625 2.292969 -18.988281 C 2.042969 -18.585938 1.917969 -18.128906 1.917969 -17.625 C 1.917969 -17.082031 2.09375 -16.589844 2.449219 -16.148438 C 2.8125 -15.691406 3.277344 -15.375 3.84375 -15.191406 L 4.191406 -15.078125 Z M 4.433594 -12.402344 "/></g></g><g style="fill:#fefefe;fill-opacity:1;"><g transform="translate(262.729102, 71.049251)"><path style="stroke:none" d="M 5.300781 -21.289062 L 21.40625 -21.289062 L 21.40625 -9.753906 L 17.238281 -9.753906 L 17.238281 -10.308594 L 17.792969 -10.308594 L 17.792969 -10.101562 L 17.238281 -10.101562 L 17.359375 -10.644531 C 18.445312 -10.402344 19.332031 -9.957031 20.019531 -9.304688 C 20.699219 -8.65625 21.179688 -7.90625 21.453125 -7.058594 C 21.726562 -6.21875 21.808594 -5.355469 21.699219 -4.464844 C 21.589844 -3.578125 21.308594 -2.753906 20.855469 -1.996094 C 20.390625 -1.222656 19.765625 -0.601562 18.976562 -0.128906 C 18.175781 0.347656 17.222656 0.585938 16.113281 0.585938 L 0.125 0.585938 L 0.125 -10.863281 L 4.859375 -10.863281 L 4.859375 -10.308594 L 4.300781 -10.308594 L 4.300781 -10.515625 L 4.859375 -10.515625 L 4.753906 -9.96875 C 3.195312 -10.269531 1.953125 -10.898438 1.023438 -11.863281 C 0.0703125 -12.847656 -0.40625 -14.085938 -0.40625 -15.578125 C -0.40625 -16.570312 -0.148438 -17.503906 0.363281 -18.378906 C 0.875 -19.246094 1.558594 -19.949219 2.417969 -20.480469 C 3.285156 -21.019531 4.25 -21.289062 5.300781 -21.289062 Z M 5.300781 -20.179688 C 4.460938 -20.179688 3.691406 -19.964844 3.003906 -19.535156 C 2.300781 -19.101562 1.742188 -18.527344 1.324219 -17.816406 C 0.910156 -17.113281 0.703125 -16.367188 0.703125 -15.578125 C 0.703125 -14.386719 1.074219 -13.40625 1.820312 -12.632812 C 2.589844 -11.839844 3.636719 -11.316406 4.960938 -11.058594 L 5.414062 -10.972656 L 5.414062 -9.753906 L 0.679688 -9.753906 L 0.679688 -10.308594 L 1.238281 -10.308594 L 1.238281 0.03125 L 0.679688 0.03125 L 0.679688 -0.527344 L 16.113281 -0.527344 C 17.019531 -0.527344 17.78125 -0.710938 18.40625 -1.085938 C 19.035156 -1.460938 19.535156 -1.957031 19.902344 -2.566406 C 20.277344 -3.191406 20.507812 -3.867188 20.597656 -4.597656 C 20.6875 -5.328125 20.621094 -6.03125 20.398438 -6.714844 C 20.179688 -7.386719 19.800781 -7.980469 19.253906 -8.5 C 18.71875 -9.007812 18.003906 -9.363281 17.121094 -9.558594 L 16.683594 -9.652344 L 16.683594 -10.863281 L 20.851562 -10.863281 L 20.851562 -10.308594 L 20.296875 -10.308594 L 20.296875 -20.734375 L 20.851562 -20.734375 L 20.851562 -20.179688 Z M 5.300781 -20.179688 "/></g></g><g style="fill:#fefefe;fill-opacity:1;"><g transform="translate(124.769828, 102.810127)"><path style="stroke:none" d="M 0.886719 -21.320312 L 11.367188 -21.320312 L 11.367188 -13.121094 L 10.8125 -13.121094 L 10.8125 -13.675781 L 11.699219 -13.675781 L 11.699219 -13.121094 L 11.144531 -13.121094 L 11.144531 -21.320312 L 22.179688 -21.320312 L 22.179688 0.527344 L 11.144531 0.527344 L 11.144531 -7.671875 L 11.699219 -7.671875 L 11.699219 -7.117188 L 10.8125 -7.117188 L 10.8125 -7.671875 L 11.367188 -7.671875 L 11.367188 0.527344 L 0.332031 0.527344 L 0.332031 -21.320312 Z M 0.886719 -20.207031 L 0.886719 -20.761719 L 1.445312 -20.761719 L 1.445312 -0.03125 L 0.886719 -0.03125 L 0.886719 -0.585938 L 10.8125 -0.585938 L 10.8125 -0.03125 L 10.253906 -0.03125 L 10.253906 -8.226562 L 12.253906 -8.226562 L 12.253906 -0.03125 L 11.699219 -0.03125 L 11.699219 -0.585938 L 21.621094 -0.585938 L 21.621094 -0.03125 L 21.066406 -0.03125 L 21.066406 -20.761719 L 21.621094 -20.761719 L 21.621094 -20.207031 L 11.699219 -20.207031 L 11.699219 -20.761719 L 12.253906 -20.761719 L 12.253906 -12.566406 L 10.253906 -12.566406 L 10.253906 -20.761719 L 10.8125 -20.761719 L 10.8125 -20.207031 Z M 0.886719 -20.207031 "/></g></g><g style="fill:#fefefe;fill-opacity:1;"><g transform="translate(147.307475, 102.810127)"><path style="stroke:none" d="M -1.308594 -0.28125 L 12.261719 -23.277344 L 26.328125 0.554688 L -1.800781 0.554688 Z M -0.351562 0.28125 L -0.828125 0 L -0.828125 -0.554688 L 25.355469 -0.554688 L 25.355469 0 L 24.875 0.28125 L 11.785156 -21.902344 L 12.261719 -22.183594 L 12.742188 -21.902344 Z M -0.351562 0.28125 "/></g></g><g style="fill:#fefefe;fill-opacity:1;"><g transform="translate(171.740536, 102.810127)"><path style="stroke:none" d="M 10.8125 -21.289062 C 12.050781 -21.289062 13.214844 -21.058594 14.300781 -20.59375 C 15.382812 -20.132812 16.339844 -19.488281 17.167969 -18.671875 C 18 -17.851562 18.652344 -16.898438 19.125 -15.816406 C 19.601562 -14.730469 19.835938 -13.5625 19.835938 -12.320312 C 19.835938 -11.101562 19.605469 -9.945312 19.140625 -8.859375 C 18.679688 -7.777344 18.039062 -6.824219 17.214844 -6.003906 C 16.398438 -5.183594 15.449219 -4.542969 14.378906 -4.082031 C 13.300781 -3.617188 12.140625 -3.382812 10.898438 -3.382812 L 10.898438 -3.9375 L 11.457031 -3.9375 L 11.457031 0.554688 L 0.332031 0.554688 L 0.332031 -21.289062 Z M 10.8125 -20.179688 L 0.886719 -20.179688 L 0.886719 -20.734375 L 1.445312 -20.734375 L 1.445312 0 L 0.886719 0 L 0.886719 -0.554688 L 10.898438 -0.554688 L 10.898438 0 L 10.34375 0 L 10.34375 -4.496094 L 10.898438 -4.496094 C 11.988281 -4.496094 13 -4.695312 13.9375 -5.101562 C 14.878906 -5.507812 15.710938 -6.070312 16.429688 -6.789062 C 17.152344 -7.511719 17.714844 -8.34375 18.121094 -9.296875 C 18.523438 -10.242188 18.726562 -11.253906 18.726562 -12.320312 C 18.726562 -13.410156 18.519531 -14.425781 18.105469 -15.371094 C 17.691406 -16.324219 17.117188 -17.160156 16.390625 -17.878906 C 15.660156 -18.601562 14.816406 -19.164062 13.867188 -19.570312 C 12.917969 -19.976562 11.898438 -20.179688 10.8125 -20.179688 Z M 10.8125 -20.179688 "/></g></g><g style="fill:#fefefe;fill-opacity:1;"><g transform="translate(191.405453, 102.810127)"><path style="stroke:none" d="M 10.8125 -21.289062 C 12.050781 -21.289062 13.214844 -21.058594 14.300781 -20.59375 C 15.382812 -20.132812 16.339844 -19.488281 17.167969 -18.671875 C 18 -17.851562 18.652344 -16.898438 19.125 -15.816406 C 19.601562 -14.730469 19.835938 -13.5625 19.835938 -12.320312 C 19.835938 -11.101562 19.605469 -9.945312 19.140625 -8.859375 C 18.679688 -7.777344 18.039062 -6.824219 17.214844 -6.003906 C 16.398438 -5.183594 15.449219 -4.542969 14.378906 -4.082031 C 13.300781 -3.617188 12.140625 -3.382812 10.898438 -3.382812 L 10.898438 -3.9375 L 11.457031 -3.9375 L 11.457031 0.554688 L 0.332031 0.554688 L 0.332031 -21.289062 Z M 10.8125 -20.179688 L 0.886719 -20.179688 L 0.886719 -20.734375 L 1.445312 -20.734375 L 1.445312 0 L 0.886719 0 L 0.886719 -0.554688 L 10.898438 -0.554688 L 10.898438 0 L 10.34375 0 L 10.34375 -4.496094 L 10.898438 -4.496094 C 11.988281 -4.496094 13 -4.695312 13.9375 -5.101562 C 14.878906 -5.507812 15.710938 -6.070312 16.429688 -6.789062 C 17.152344 -7.511719 17.714844 -8.34375 18.121094 -9.296875 C 18.523438 -10.242188 18.726562 -11.253906 18.726562 -12.320312 C 18.726562 -13.410156 18.519531 -14.425781 18.105469 -15.371094 C 17.691406 -16.324219 17.117188 -17.160156 16.390625 -17.878906 C 15.660156 -18.601562 14.816406 -19.164062 13.867188 -19.570312 C 12.917969 -19.976562 11.898438 -20.179688 10.8125 -20.179688 Z M 10.8125 -20.179688 "/></g></g><g style="fill:#fefefe;fill-opacity:1;"><g transform="translate(211.070371, 102.810127)"><path style="stroke:none" d="M 0.859375 -21.320312 L 18.59375 -21.320312 L 18.59375 -13.21875 L 13.742188 -13.21875 L 13.742188 -13.773438 L 14.300781 -13.773438 L 14.300781 -12.882812 L 13.742188 -12.882812 L 13.742188 -13.441406 L 18.59375 -13.441406 L 18.59375 -7.351562 L 13.742188 -7.351562 L 13.742188 -7.910156 L 14.300781 -7.910156 L 14.300781 -7.019531 L 13.742188 -7.019531 L 13.742188 -7.574219 L 18.59375 -7.574219 L 18.59375 0.527344 L 0.304688 0.527344 L 0.304688 -21.320312 Z M 0.859375 -20.207031 L 0.859375 -20.761719 L 1.414062 -20.761719 L 1.414062 -0.03125 L 0.859375 -0.03125 L 0.859375 -0.585938 L 18.039062 -0.585938 L 18.039062 -0.03125 L 17.484375 -0.03125 L 17.484375 -7.019531 L 18.039062 -7.019531 L 18.039062 -6.464844 L 13.1875 -6.464844 L 13.1875 -8.464844 L 18.039062 -8.464844 L 18.039062 -7.910156 L 17.484375 -7.910156 L 17.484375 -12.882812 L 18.039062 -12.882812 L 18.039062 -12.328125 L 13.1875 -12.328125 L 13.1875 -14.328125 L 18.039062 -14.328125 L 18.039062 -13.773438 L 17.484375 -13.773438 L 17.484375 -20.761719 L 18.039062 -20.761719 L 18.039062 -20.207031 Z M 0.859375 -20.207031 "/></g></g><g style="fill:#fefefe;fill-opacity:1;"><g transform="translate(229.96527, 102.810127)"><path style="stroke:none" d="M 1.230469 -21.675781 L 11.65625 -13.53125 L 11.316406 -13.09375 L 10.757812 -13.09375 L 10.757812 -21.289062 L 22.179688 -21.289062 L 22.179688 0.554688 L 0.332031 0.554688 L 0.332031 -22.375 Z M 0.546875 -20.800781 L 0.886719 -21.238281 L 1.445312 -21.238281 L 1.445312 0 L 0.886719 0 L 0.886719 -0.554688 L 21.621094 -0.554688 L 21.621094 0 L 21.066406 0 L 21.066406 -20.734375 L 21.621094 -20.734375 L 21.621094 -20.179688 L 11.316406 -20.179688 L 11.316406 -20.734375 L 11.871094 -20.734375 L 11.871094 -11.953125 Z M 0.546875 -20.800781 "/></g></g><g style="fill:#fefefe;fill-opacity:1;"><g transform="translate(252.414073, 102.810127)"><path style="stroke:none" d="M 0.304688 -21.289062 L 12.195312 -21.289062 L 12.195312 0.554688 L 0.304688 0.554688 Z M 1.414062 -20.179688 L 1.414062 -0.554688 L 11.085938 -0.554688 L 11.085938 -20.179688 Z M 1.414062 -20.179688 "/></g></g><g style="fill:#fefefe;fill-opacity:1;"><g transform="translate(264.941573, 102.810127)"><path style="stroke:none" d="M 1.230469 -21.675781 L 11.65625 -13.53125 L 11.316406 -13.09375 L 10.757812 -13.09375 L 10.757812 -21.289062 L 22.179688 -21.289062 L 22.179688 0.554688 L 0.332031 0.554688 L 0.332031 -22.375 Z M 0.546875 -20.800781 L 0.886719 -21.238281 L 1.445312 -21.238281 L 1.445312 0 L 0.886719 0 L 0.886719 -0.554688 L 21.621094 -0.554688 L 21.621094 0 L 21.066406 0 L 21.066406 -20.734375 L 21.621094 -20.734375 L 21.621094 -20.179688 L 11.316406 -20.179688 L 11.316406 -20.734375 L 11.871094 -20.734375 L 11.871094 -11.953125 Z M 0.546875 -20.800781 "/></g></g><g style="fill:#fefefe;fill-opacity:1;"><g transform="translate(287.390377, 102.810127)"><path style="stroke:none" d="M 11.34375 -10.953125 L 22.859375 -10.953125 L 22.859375 -10.394531 C 22.859375 -8.800781 22.5625 -7.304688 21.96875 -5.914062 C 21.378906 -4.523438 20.554688 -3.300781 19.496094 -2.242188 C 18.441406 -1.183594 17.214844 -0.359375 15.828125 0.230469 C 14.433594 0.820312 12.941406 1.117188 11.34375 1.117188 C 9.75 1.117188 8.253906 0.820312 6.863281 0.230469 C 5.472656 -0.359375 4.25 -1.183594 3.191406 -2.242188 C 2.132812 -3.300781 1.308594 -4.523438 0.71875 -5.914062 C 0.125 -7.304688 -0.171875 -8.800781 -0.171875 -10.394531 C -0.171875 -11.828125 0.0742188 -13.183594 0.5625 -14.460938 C 1.050781 -15.734375 1.726562 -16.878906 2.597656 -17.894531 C 3.46875 -18.914062 4.496094 -19.757812 5.679688 -20.429688 C 6.859375 -21.105469 8.136719 -21.558594 9.503906 -21.785156 C 10.792969 -21.992188 12.097656 -21.976562 13.414062 -21.738281 C 14.730469 -21.5 15.960938 -21.050781 17.101562 -20.382812 L 17.582031 -20.105469 L 11.824219 -10.117188 L 11.34375 -10.394531 Z M 10.382812 -9.839844 L 16.34375 -20.183594 L 16.824219 -19.90625 L 16.542969 -19.425781 C 15.515625 -20.023438 14.40625 -20.429688 13.214844 -20.644531 C 12.023438 -20.863281 10.847656 -20.875 9.6875 -20.6875 C 8.449219 -20.484375 7.296875 -20.074219 6.230469 -19.464844 C 5.160156 -18.855469 4.230469 -18.09375 3.441406 -17.171875 C 2.65625 -16.253906 2.042969 -15.21875 1.601562 -14.0625 C 1.160156 -12.914062 0.941406 -11.691406 0.941406 -10.394531 C 0.941406 -8.953125 1.207031 -7.601562 1.742188 -6.347656 C 2.273438 -5.09375 3.019531 -3.984375 3.976562 -3.027344 C 4.933594 -2.074219 6.039062 -1.328125 7.296875 -0.792969 C 8.550781 -0.257812 9.898438 0.0078125 11.34375 0.0078125 C 12.789062 0.0078125 14.136719 -0.257812 15.390625 -0.792969 C 16.648438 -1.328125 17.753906 -2.074219 18.710938 -3.027344 C 19.667969 -3.984375 20.414062 -5.09375 20.949219 -6.347656 C 21.480469 -7.601562 21.746094 -8.953125 21.746094 -10.394531 L 22.304688 -10.394531 L 22.304688 -9.839844 Z M 10.382812 -9.839844 "/></g></g><g style="fill:#fefefe;fill-opacity:1;"><g transform="translate(58.993975, 119.320192)"><path style="stroke:none" d="M 0 -8.296875 L -7.550781 -8.296875 L -7.550781 -0.757812 L 0 -0.757812 L 0 -2.261719 L -3.023438 -2.261719 L -3.023438 -6.789062 L 0 -6.789062 Z M -4.527344 -6.789062 L -4.527344 -2.261719 L -6.03125 -2.261719 L -6.03125 -6.789062 Z M -4.527344 -6.789062 "/></g></g><g style="fill:#fefefe;fill-opacity:1;"><g transform="translate(58.993975, 108.89615)"><path style="stroke:none" d="M 0 -8.296875 L -7.550781 -8.296875 L -7.550781 -6.789062 L -1.503906 -6.789062 L -1.503906 -2.261719 L -7.550781 -2.261719 L -7.550781 -0.757812 L 0 -0.757812 Z M 0 -8.296875 "/></g></g><g style="fill:#fefefe;fill-opacity:1;"><g transform="translate(58.993975, 98.472107)"><path style="stroke:none" d="M 0 -8.296875 L -4.527344 -8.296875 L -4.527344 -2.261719 L -6.03125 -2.261719 L -6.03125 -8.296875 L -7.550781 -8.296875 L -7.550781 -0.757812 L -3.023438 -0.757812 L -3.023438 -6.789062 L -1.503906 -6.789062 L -1.503906 -0.757812 L 0 -0.757812 Z M 0 -8.296875 "/></g></g><g style="fill:#fefefe;fill-opacity:1;"><g transform="translate(58.993975, 88.048064)"><path style="stroke:none" d="M -6.03125 -8.296875 L -7.550781 -8.296875 L -7.550781 -0.757812 L -6.03125 -0.757812 L -6.03125 -3.769531 L 0 -3.769531 L 0 -5.285156 L -6.03125 -5.285156 Z M -6.03125 -8.296875 "/></g></g><g style="fill:#fefefe;fill-opacity:1;"><g transform="translate(58.993975, 77.624021)"><path style="stroke:none" d="M -3.023438 -8.296875 L -7.550781 -8.296875 L -7.550781 -0.757812 L 0 -0.757812 L 0 -2.261719 L -3.023438 -2.261719 L -3.023438 -5.285156 L 0 -5.285156 L 0 -6.789062 L -3.023438 -6.789062 Z M -4.527344 -6.789062 L -4.527344 -2.261719 L -6.03125 -2.261719 L -6.03125 -6.789062 Z M -4.527344 -6.789062 "/></g></g><g style="fill:#fefefe;fill-opacity:1;"><g transform="translate(58.993975, 67.199978)"><path style="stroke:none" d="M 0 -8.296875 L -7.550781 -8.296875 L -7.550781 -0.757812 L 0 -0.757812 L 0 -2.261719 L -3.023438 -2.261719 L -3.023438 -6.789062 L 0 -6.789062 Z M -4.527344 -6.789062 L -4.527344 -2.261719 L -6.03125 -2.261719 L -6.03125 -6.789062 Z M -4.527344 -6.789062 "/></g></g><g style="fill:#fefefe;fill-opacity:1;"><g transform="translate(58.993975, 56.775935)"><path style="stroke:none" d="M 0 -8.296875 L -1.503906 -8.296875 L -1.503906 -2.261719 L -7.550781 -2.261719 L -7.550781 -0.757812 L 0 -0.757812 Z M 0 -8.296875 "/></g></g><g style="fill:#fefefe;fill-opacity:1;"><g transform="translate(58.993975, 46.351892)"><path style="stroke:none" d="M 0 -2.261719 L -7.550781 -2.261719 L -7.550781 -0.757812 L 0 -0.757812 Z M 0 -2.261719 "/></g></g><g style="fill:#fefefe;fill-opacity:1;"><g transform="translate(58.993975, 41.960444)"><path style="stroke:none" d="M 0 -8.296875 L -7.550781 -8.296875 L -7.550781 -0.757812 L 0 -0.757812 L 0 -2.261719 L -3.023438 -2.261719 L -3.023438 -6.789062 L 0 -6.789062 Z M -4.527344 -6.789062 L -4.527344 -2.261719 L -6.03125 -2.261719 L -6.03125 -6.789062 Z M -4.527344 -6.789062 "/></g></g><g style="fill:#fefefe;fill-opacity:1;"><g transform="translate(167.533398, 23.291559)"><path style="stroke:none" d="M 6.007812 0 L 6.007812 -1.089844 L 1.640625 -1.089844 L 1.640625 -2.1875 L 6.007812 -2.1875 L 6.007812 -3.277344 L 1.640625 -3.277344 L 1.640625 -4.367188 L 6.007812 -4.367188 L 6.007812 -5.46875 L 0.550781 -5.46875 L 0.550781 0 Z M 6.007812 0 "/></g></g><g style="fill:#fefefe;fill-opacity:1;"><g transform="translate(175.082258, 23.291559)"><path style="stroke:none" d="M 6.007812 -4.367188 L 6.007812 -5.46875 L 4.367188 -5.46875 L 4.367188 -1.089844 L 2.1875 -1.089844 L 2.1875 -5.46875 L 0.550781 -5.46875 L 0.550781 -4.367188 L 1.089844 -4.367188 L 1.089844 0 L 5.46875 0 L 5.46875 -4.367188 Z M 6.007812 -4.367188 "/></g></g><g style="fill:#fefefe;fill-opacity:1;"><g transform="translate(182.631118, 23.291559)"><path style="stroke:none" d="M 6.007812 0 L 6.007812 -1.089844 L 1.640625 -1.089844 L 1.640625 -2.1875 L 6.007812 -2.1875 L 6.007812 -3.277344 L 1.640625 -3.277344 L 1.640625 -4.367188 L 6.007812 -4.367188 L 6.007812 -5.46875 L 0.550781 -5.46875 L 0.550781 0 Z M 6.007812 0 "/></g></g><g style="fill:#fefefe;fill-opacity:1;"><g transform="translate(190.179978, 23.291559)"><path style="stroke:none" d="M 6.007812 0 L 6.007812 -5.46875 L 0.550781 -5.46875 L 0.550781 0 L 1.640625 0 L 1.640625 -4.367188 L 4.917969 -4.367188 L 4.917969 0 Z M 6.007812 0 "/></g></g><g style="fill:#fefefe;fill-opacity:1;"><g transform="translate(197.728838, 23.291559)"><path style="stroke:none" d="M 6.007812 -4.367188 L 6.007812 -5.46875 L 0.550781 -5.46875 L 0.550781 -4.367188 L 2.730469 -4.367188 L 2.730469 0 L 3.828125 0 L 3.828125 -4.367188 Z M 6.007812 -4.367188 "/></g></g><g style="fill:#fefefe;fill-opacity:1;"><g transform="translate(205.277698, 23.291559)"><path style="stroke:none" d=""/></g></g><g style="fill:#fefefe;fill-opacity:1;"><g transform="translate(210.367646, 23.291559)"><path style="stroke:none" d="M 1.640625 1.089844 L 1.640625 -6.558594 L 0.550781 -6.558594 L 0.550781 1.089844 Z M 1.640625 1.089844 "/></g></g><g style="fill:#fefefe;fill-opacity:1;"><g transform="translate(213.547835, 23.291559)"><path style="stroke:none" d=""/></g></g><g style="fill:#fefefe;fill-opacity:1;"><g transform="translate(218.637782, 23.291559)"><path style="stroke:none" d="M 6.007812 0 L 6.007812 -5.46875 L 0.550781 -5.46875 L 0.550781 -4.367188 L 1.089844 -4.367188 L 1.089844 -1.089844 L 0.550781 -1.089844 L 0.550781 0 Z M 4.917969 -1.089844 L 2.1875 -1.089844 L 2.1875 -4.367188 L 4.917969 -4.367188 Z M 4.917969 -1.089844 "/></g></g><g style="fill:#fefefe;fill-opacity:1;"><g transform="translate(226.186642, 23.291559)"><path style="stroke:none" d="M 6.007812 0 L 6.007812 -1.089844 L 1.640625 -1.089844 L 1.640625 -2.1875 L 6.007812 -2.1875 L 6.007812 -3.277344 L 1.640625 -3.277344 L 1.640625 -4.367188 L 6.007812 -4.367188 L 6.007812 -5.46875 L 0.550781 -5.46875 L 0.550781 0 Z M 6.007812 0 "/></g></g><g style="fill:#fefefe;fill-opacity:1;"><g transform="translate(233.735503, 23.291559)"><path style="stroke:none" d="M 6.007812 0 L 6.007812 -5.46875 L 0.550781 -5.46875 L 0.550781 0 L 1.640625 0 L 1.640625 -2.1875 L 4.917969 -2.1875 L 4.917969 0 Z M 4.917969 -3.277344 L 1.640625 -3.277344 L 1.640625 -4.367188 L 4.917969 -4.367188 Z M 4.917969 -3.277344 "/></g></g><g style="fill:#fefefe;fill-opacity:1;"><g transform="translate(241.284363, 23.291559)"><path style="stroke:none" d="M 6.007812 0 L 6.007812 -1.089844 L 1.640625 -1.089844 L 1.640625 -5.46875 L 0.550781 -5.46875 L 0.550781 0 Z M 6.007812 0 "/></g></g><g style="fill:#fefefe;fill-opacity:1;"><g transform="translate(248.833223, 23.291559)"><path style="stroke:none" d="M 6.007812 0 L 6.007812 -3.277344 L 1.640625 -3.277344 L 1.640625 -4.367188 L 6.007812 -4.367188 L 6.007812 -5.46875 L 0.550781 -5.46875 L 0.550781 -2.1875 L 4.917969 -2.1875 L 4.917969 -1.089844 L 0.550781 -1.089844 L 0.550781 0 Z M 6.007812 0 "/></g></g><g style="fill:#fefefe;fill-opacity:1;"><g transform="translate(256.382083, 23.291559)"><path style="stroke:none" d=""/></g></g><g style="fill:#fefefe;fill-opacity:1;"><g transform="translate(261.47203, 23.291559)"><path style="stroke:none" d="M 1.640625 1.089844 L 1.640625 -6.558594 L 0.550781 -6.558594 L 0.550781 1.089844 Z M 1.640625 1.089844 "/></g></g><g style="fill:#fefefe;fill-opacity:1;"><g transform="translate(264.652219, 23.291559)"><path style="stroke:none" d=""/></g></g><g style="fill:#fefefe;fill-opacity:1;"><g transform="translate(269.742167, 23.291559)"><path style="stroke:none" d="M 6.007812 0 L 6.007812 -3.277344 L 5.46875 -3.277344 L 5.46875 -5.46875 L 0.550781 -5.46875 L 0.550781 0 Z M 4.367188 -3.277344 L 1.640625 -3.277344 L 1.640625 -4.367188 L 4.367188 -4.367188 Z M 4.917969 -1.089844 L 1.640625 -1.089844 L 1.640625 -2.1875 L 4.917969 -2.1875 Z M 4.917969 -1.089844 "/></g></g><g style="fill:#fefefe;fill-opacity:1;"><g transform="translate(277.291027, 23.291559)"><path style="stroke:none" d="M 6.007812 0 L 6.007812 -5.46875 L 4.917969 -5.46875 L 4.917969 -1.089844 L 1.640625 -1.089844 L 1.640625 -5.46875 L 0.550781 -5.46875 L 0.550781 0 Z M 6.007812 0 "/></g></g><g style="fill:#fefefe;fill-opacity:1;"><g transform="translate(284.839887, 23.291559)"><path style="stroke:none" d="M 6.007812 0 L 6.007812 -3.277344 L 1.640625 -3.277344 L 1.640625 -4.367188 L 6.007812 -4.367188 L 6.007812 -5.46875 L 0.550781 -5.46875 L 0.550781 -2.1875 L 4.917969 -2.1875 L 4.917969 -1.089844 L 0.550781 -1.089844 L 0.550781 0 Z M 6.007812 0 "/></g></g><g style="fill:#fefefe;fill-opacity:1;"><g transform="translate(292.388747, 23.291559)"><path style="stroke:none" d="M 1.640625 0 L 1.640625 -5.46875 L 0.550781 -5.46875 L 0.550781 0 Z M 1.640625 0 "/></g></g><g style="fill:#fefefe;fill-opacity:1;"><g transform="translate(295.568936, 23.291559)"><path style="stroke:none" d="M 6.007812 0 L 6.007812 -5.46875 L 0.550781 -5.46875 L 0.550781 0 L 1.640625 0 L 1.640625 -4.367188 L 4.917969 -4.367188 L 4.917969 0 Z M 6.007812 0 "/></g></g><g style="fill:#fefefe;fill-opacity:1;"><g transform="translate(303.117796, 23.291559)"><path style="stroke:none" d="M 6.007812 0 L 6.007812 -1.089844 L 1.640625 -1.089844 L 1.640625 -2.1875 L 6.007812 -2.1875 L 6.007812 -3.277344 L 1.640625 -3.277344 L 1.640625 -4.367188 L 6.007812 -4.367188 L 6.007812 -5.46875 L 0.550781 -5.46875 L 0.550781 0 Z M 6.007812 0 "/></g></g><g style="fill:#fefefe;fill-opacity:1;"><g transform="translate(310.666657, 23.291559)"><path style="stroke:none" d="M 6.007812 0 L 6.007812 -3.277344 L 1.640625 -3.277344 L 1.640625 -4.367188 L 6.007812 -4.367188 L 6.007812 -5.46875 L 0.550781 -5.46875 L 0.550781 -2.1875 L 4.917969 -2.1875 L 4.917969 -1.089844 L 0.550781 -1.089844 L 0.550781 0 Z M 6.007812 0 "/></g></g><g style="fill:#fefefe;fill-opacity:1;"><g transform="translate(318.215517, 23.291559)"><path style="stroke:none" d="M 6.007812 0 L 6.007812 -3.277344 L 1.640625 -3.277344 L 1.640625 -4.367188 L 6.007812 -4.367188 L 6.007812 -5.46875 L 0.550781 -5.46875 L 0.550781 -2.1875 L 4.917969 -2.1875 L 4.917969 -1.089844 L 0.550781 -1.089844 L 0.550781 0 Z M 6.007812 0 "/></g></g><g clip-rule="nonzero" clip-path="url(#6e54959855)"><path style=" stroke:none;fill-rule:nonzero;fill:#ffffff;fill-opacity:1;" d="M 26.558594 85.820312 C 31.71875 85.820312 36.890625 85.820312 42.066406 85.820312 L 42.066406 89.5625 C 36.890625 89.5625 31.71875 89.5625 26.558594 89.5625 Z M 26.558594 44.660156 C 31.71875 44.660156 36.890625 44.660156 42.066406 44.660156 L 42.066406 40.917969 C 36.890625 40.917969 31.71875 40.917969 26.558594 40.917969 Z M 26.558594 38.113281 C 31.71875 38.113281 36.890625 38.113281 42.066406 38.113281 L 42.066406 34.371094 C 36.890625 34.371094 31.71875 34.371094 26.558594 34.371094 Z M 26.558594 62.433594 C 31.722656 62.433594 36.890625 62.433594 42.066406 62.433594 L 42.066406 59.628906 C 36.890625 59.628906 31.722656 59.628906 26.558594 59.628906 Z M 26.558594 25.953125 C 31.722656 25.953125 36.890625 25.953125 42.066406 25.953125 L 42.066406 23.144531 C 36.890625 23.144531 31.722656 23.144531 26.558594 23.144531 Z M 26.558594 124.171875 C 31.71875 124.171875 36.890625 124.171875 42.066406 124.171875 L 42.066406 121.367188 C 36.890625 121.367188 31.71875 121.367188 26.558594 121.367188 Z M 26.558594 33.4375 C 31.722656 33.4375 36.890625 33.4375 42.066406 33.4375 L 42.066406 30.628906 C 36.890625 30.628906 31.722656 30.628906 26.558594 30.628906 Z M 26.558594 52.144531 C 31.714844 52.144531 36.882812 52.144531 42.066406 52.144531 L 42.066406 50.273438 C 36.890625 50.273438 31.71875 50.273438 26.558594 50.273438 Z M 26.558594 21.273438 C 31.71875 21.273438 36.890625 21.273438 42.066406 21.273438 L 42.066406 19.402344 C 36.890625 19.402344 31.71875 19.402344 26.558594 19.402344 Z M 26.558594 127.914062 C 31.71875 127.914062 36.890625 127.914062 42.066406 127.914062 L 42.066406 126.042969 C 36.890625 126.042969 31.71875 126.042969 26.558594 126.042969 Z M 26.558594 74.59375 C 31.714844 74.59375 36.882812 74.59375 42.066406 74.59375 L 42.066406 72.722656 C 36.890625 72.722656 31.71875 72.722656 26.558594 72.722656 Z M 26.558594 113.882812 C 31.71875 113.882812 36.890625 113.882812 42.066406 113.882812 L 42.066406 112.011719 C 36.890625 112.011719 31.71875 112.011719 26.558594 112.011719 Z M 26.558594 66.175781 C 31.71875 66.175781 36.890625 66.175781 42.066406 66.175781 L 42.066406 64.304688 C 36.890625 64.304688 31.71875 64.304688 26.558594 64.304688 Z M 26.558594 105.464844 C 31.714844 105.464844 36.882812 105.464844 42.066406 105.464844 L 42.066406 103.59375 C 36.890625 103.59375 31.71875 103.59375 26.558594 103.59375 Z M 26.558594 99.851562 C 31.714844 99.851562 36.882812 99.851562 42.066406 99.851562 L 42.066406 97.980469 C 36.890625 97.980469 31.71875 97.980469 26.558594 97.980469 Z M 26.558594 133.257812 L 42.066406 133.257812 L 42.066406 132.589844 C 36.902344 132.589844 31.730469 132.589844 26.558594 132.589844 Z M 26.558594 130.71875 C 31.730469 130.71875 36.902344 130.71875 42.066406 130.71875 L 42.066406 129.785156 C 36.902344 129.785156 31.730469 129.785156 26.558594 129.785156 Z M 26.558594 120.429688 C 31.730469 120.429688 36.902344 120.429688 42.066406 120.429688 L 42.066406 119.496094 C 36.902344 119.496094 31.730469 119.496094 26.558594 119.496094 Z M 26.558594 115.753906 C 31.730469 115.753906 36.902344 115.753906 42.066406 115.753906 L 42.066406 114.816406 C 36.902344 114.816406 31.730469 114.816406 26.558594 114.816406 Z M 26.558594 110.140625 C 31.730469 110.140625 36.902344 110.140625 42.066406 110.140625 L 42.066406 109.203125 C 36.902344 109.203125 31.730469 109.203125 26.558594 109.203125 Z M 26.558594 107.335938 C 31.730469 107.335938 36.902344 107.335938 42.066406 107.335938 L 42.066406 106.398438 C 36.902344 106.398438 31.730469 106.398438 26.558594 106.398438 Z M 26.558594 94.238281 C 31.730469 94.238281 36.902344 94.238281 42.066406 94.238281 L 42.066406 93.304688 C 36.902344 93.304688 31.730469 93.304688 26.558594 93.304688 Z M 26.558594 92.367188 C 31.730469 92.367188 36.902344 92.367188 42.066406 92.367188 L 42.066406 91.433594 C 36.902344 91.433594 31.730469 91.433594 26.558594 91.433594 Z M 26.558594 84.882812 C 31.730469 84.882812 36.902344 84.882812 42.066406 84.882812 L 42.066406 83.949219 C 36.902344 83.949219 31.730469 83.949219 26.558594 83.949219 Z M 26.558594 82.078125 C 31.730469 82.078125 36.902344 82.078125 42.066406 82.078125 L 42.066406 81.140625 C 36.902344 81.140625 31.730469 81.140625 26.558594 81.140625 Z M 26.558594 78.449219 L 26.558594 79.269531 C 31.730469 79.269531 36.902344 79.269531 42.066406 79.269531 L 42.066406 78.335938 C 36.902344 78.335938 31.730469 78.335938 26.558594 78.335938 Z M 26.558594 76.464844 C 31.730469 76.464844 36.902344 76.464844 42.066406 76.464844 L 42.066406 75.53125 C 36.902344 75.53125 31.730469 75.53125 26.558594 75.53125 Z M 26.558594 68.980469 C 31.730469 68.980469 36.902344 68.980469 42.066406 68.980469 L 42.066406 68.046875 C 36.902344 68.046875 31.730469 68.046875 26.558594 68.046875 Z M 26.558594 57.84375 L 26.558594 58.691406 C 31.730469 58.691406 36.902344 58.691406 42.066406 58.691406 L 42.066406 57.757812 C 36.902344 57.757812 31.730469 57.757812 26.558594 57.757812 Z M 26.558594 54.015625 C 31.730469 54.015625 36.902344 54.015625 42.066406 54.015625 L 42.066406 53.078125 C 36.902344 53.078125 31.730469 53.078125 26.558594 53.078125 Z M 26.558594 48.402344 C 31.730469 48.402344 36.902344 48.402344 42.066406 48.402344 L 42.066406 47.46875 C 36.902344 47.46875 31.730469 47.46875 26.558594 47.46875 Z M 26.558594 39.984375 C 31.730469 39.984375 36.902344 39.984375 42.066406 39.984375 L 42.066406 39.046875 C 36.902344 39.046875 31.730469 39.046875 26.558594 39.046875 Z M 26.558594 29.695312 C 31.730469 29.695312 36.902344 29.695312 42.066406 29.695312 L 42.066406 28.757812 C 36.902344 28.757812 31.730469 28.757812 26.558594 28.757812 Z M 26.558594 27.824219 C 31.730469 27.824219 36.902344 27.824219 42.066406 27.824219 L 42.066406 26.886719 C 36.902344 26.886719 31.730469 26.886719 26.558594 26.886719 Z M 26.558594 16.597656 L 26.558594 17.535156 C 31.730469 17.535156 36.902344 17.535156 42.066406 17.535156 L 42.066406 16.597656 Z M 26.558594 16.597656 "/></g></g></svg>